<?xml version="1.0" encoding="UTF-8"?>
<svg id="EInfärben" xmlns="http://www.w3.org/2000/svg" version="1.1" viewBox="0 0 20 20">
  <defs>
    <style>
      .cls-1 {
        fill: #432918;
      }

      .cls-1, .cls-2, .cls-3, .cls-4, .cls-5, .cls-6, .cls-7, .cls-8, .cls-9, .cls-10 {
        stroke-width: 0px;
      }

      .cls-2 {
        fill: #063;
      }

      .cls-3 {
        fill: #3aaa35;
      }

      .cls-11 {
        fill: none;
        stroke: #432918;
        stroke-miterlimit: 10;
      }

      .cls-4 {
        fill: #936037;
      }

      .cls-5 {
        fill: #95c11f;
      }

      .cls-6 {
        fill: #dedc00;
      }

      .cls-7 {
        fill: #008d36;
      }

      .cls-8 {
        fill: #7d4e24;
      }

      .cls-9 {
        fill: #fff;
      }

      .cls-10 {
        fill: #683c11;
      }
    </style>
  </defs>
  <g id="Einfärben-2" data-name="Einfärben">
    <g>
      <g>
        <rect class="cls-10" x="19" y="6" width="1" height="1"/>
        <rect class="cls-1" x="19" y="8" width="1" height="1"/>
        <rect class="cls-10" x="19" y="7" width="1" height="1"/>
        <rect class="cls-1" x="19" y="10" width="1" height="1"/>
        <rect class="cls-1" x="19" y="9" width="1" height="1"/>
        <rect class="cls-1" x="19" y="18" width="1" height="1"/>
        <rect class="cls-10" x="19" y="19" width="1" height="1"/>
        <rect class="cls-1" x="19" y="17" width="1" height="1"/>
        <rect class="cls-1" x="19" y="12" width="1" height="1"/>
        <rect class="cls-1" x="19" y="13" width="1" height="1"/>
        <rect class="cls-1" x="19" y="15" width="1" height="1"/>
        <rect class="cls-1" x="19" y="16" width="1" height="1"/>
        <rect class="cls-1" x="19" y="14" width="1" height="1"/>
        <rect class="cls-1" x="19" y="11" width="1" height="1"/>
        <rect class="cls-1" x="18" y="13" width="1" height="1"/>
        <rect class="cls-1" x="17" y="17" width="1" height="1"/>
        <rect class="cls-10" x="18" y="7" width="1" height="1"/>
        <rect class="cls-1" x="16" y="17" width="1" height="1"/>
        <rect class="cls-1" x="18" y="12" width="1" height="1"/>
        <rect class="cls-1" x="18" y="11" width="1" height="1"/>
        <rect class="cls-1" x="18" y="10" width="1" height="1"/>
        <rect class="cls-1" x="18" y="9" width="1" height="1"/>
        <rect class="cls-1" x="18" y="8" width="1" height="1"/>
        <rect class="cls-1" x="17" y="19" width="1" height="1"/>
        <rect class="cls-1" x="17" y="12" width="1" height="1"/>
        <rect class="cls-1" x="17" y="16" width="1" height="1"/>
        <rect class="cls-1" x="17" y="14" width="1" height="1"/>
        <rect class="cls-1" x="17" y="18" width="1" height="1"/>
        <rect class="cls-1" x="16" y="8" width="1" height="1"/>
        <rect class="cls-1" x="16" y="12" width="1" height="1"/>
        <rect class="cls-10" x="17" y="6" width="1" height="1"/>
        <rect class="cls-1" x="16" y="18" width="1" height="1"/>
        <rect class="cls-1" x="16" y="13" width="1" height="1"/>
        <rect class="cls-1" x="16" y="9" width="1" height="1"/>
        <rect class="cls-4" x="17" y="15" width="1" height="1"/>
        <rect class="cls-1" x="17" y="13" width="1" height="1"/>
        <rect class="cls-1" x="17" y="10" width="1" height="1"/>
        <rect class="cls-8" x="16" y="10" width="1" height="1"/>
        <rect class="cls-4" x="17" y="8" width="1" height="1"/>
        <rect class="cls-10" x="18" y="6" width="1" height="1"/>
        <rect class="cls-1" x="17" y="11" width="1" height="1"/>
        <rect class="cls-1" x="16" y="19" width="1" height="1"/>
        <rect class="cls-1" x="17" y="7" width="1" height="1"/>
        <rect class="cls-1" x="16" y="7" width="1" height="1"/>
        <rect class="cls-1" x="16" y="14" width="1" height="1"/>
        <rect class="cls-10" x="16" y="6" width="1" height="1"/>
        <rect class="cls-1" x="16" y="16" width="1" height="1"/>
        <rect class="cls-1" x="16" y="15" width="1" height="1"/>
        <rect class="cls-1" x="16" y="11" width="1" height="1"/>
        <rect class="cls-1" x="18" y="19" width="1" height="1"/>
        <rect class="cls-1" x="17" y="9" width="1" height="1"/>
        <rect class="cls-10" x="18" y="18" width="1" height="1"/>
        <rect class="cls-1" x="18" y="17" width="1" height="1"/>
        <rect class="cls-1" x="18" y="16" width="1" height="1"/>
        <rect class="cls-1" x="18" y="15" width="1" height="1"/>
        <rect class="cls-1" x="18" y="14" width="1" height="1"/>
        <rect class="cls-8" x="15" y="13" width="1" height="1"/>
        <rect class="cls-1" x="15" y="11" width="1" height="1"/>
        <rect class="cls-1" x="14" y="13" width="1" height="1"/>
        <rect class="cls-1" x="15" y="10" width="1" height="1"/>
        <rect class="cls-1" x="13" y="14" width="1" height="1"/>
        <rect class="cls-1" x="15" y="9" width="1" height="1"/>
        <rect class="cls-1" x="15" y="8" width="1" height="1"/>
        <rect class="cls-10" x="15" y="7" width="1" height="1"/>
        <rect class="cls-10" x="14" y="7" width="1" height="1"/>
        <rect class="cls-1" x="13" y="18" width="1" height="1"/>
        <rect class="cls-1" x="13" y="7" width="1" height="1"/>
        <rect class="cls-1" x="14" y="12" width="1" height="1"/>
        <rect class="cls-1" x="14" y="10" width="1" height="1"/>
        <rect class="cls-1" x="13" y="17" width="1" height="1"/>
        <rect class="cls-1" x="13" y="19" width="1" height="1"/>
        <rect class="cls-1" x="13" y="13" width="1" height="1"/>
        <rect class="cls-1" x="12" y="19" width="1" height="1"/>
        <rect class="cls-1" x="12" y="17" width="1" height="1"/>
        <rect class="cls-2" x="15" y="6" width="1" height="1"/>
        <rect class="cls-1" x="14" y="11" width="1" height="1"/>
        <rect class="cls-2" x="14" y="6" width="1" height="1"/>
        <rect class="cls-1" x="13" y="16" width="1" height="1"/>
        <rect class="cls-1" x="14" y="19" width="1" height="1"/>
        <rect class="cls-8" x="14" y="17" width="1" height="1"/>
        <rect class="cls-1" x="14" y="16" width="1" height="1"/>
        <rect class="cls-1" x="14" y="9" width="1" height="1"/>
        <rect class="cls-10" x="14" y="8" width="1" height="1"/>
        <rect class="cls-1" x="13" y="15" width="1" height="1"/>
        <rect class="cls-4" x="13" y="12" width="1" height="1"/>
        <rect class="cls-1" x="13" y="9" width="1" height="1"/>
        <rect class="cls-1" x="13" y="8" width="1" height="1"/>
        <rect class="cls-1" x="15" y="14" width="1" height="1"/>
        <rect class="cls-1" x="13" y="11" width="1" height="1"/>
        <rect class="cls-1" x="13" y="10" width="1" height="1"/>
        <rect class="cls-1" x="15" y="19" width="1" height="1"/>
        <rect class="cls-1" x="15" y="18" width="1" height="1"/>
        <rect class="cls-1" x="15" y="17" width="1" height="1"/>
        <rect class="cls-1" x="15" y="16" width="1" height="1"/>
        <rect class="cls-1" x="15" y="15" width="1" height="1"/>
        <rect class="cls-1" x="12" y="18" width="1" height="1"/>
        <rect class="cls-1" x="12" y="16" width="1" height="1"/>
        <rect class="cls-1" x="15" y="12" width="1" height="1"/>
        <rect class="cls-1" x="14" y="18" width="1" height="1"/>
        <rect class="cls-1" x="14" y="15" width="1" height="1"/>
        <rect class="cls-1" x="14" y="14" width="1" height="1"/>
        <rect class="cls-10" x="13" y="6" width="1" height="1"/>
        <rect class="cls-1" x="11" y="19" width="1" height="1"/>
        <rect class="cls-1" x="9" y="13" width="1" height="1"/>
        <rect class="cls-1" x="11" y="17" width="1" height="1"/>
        <rect class="cls-4" x="9" y="16" width="1" height="1"/>
        <rect class="cls-1" x="10" y="14" width="1" height="1"/>
        <rect class="cls-1" x="11" y="16" width="1" height="1"/>
        <rect class="cls-1" x="11" y="13" width="1" height="1"/>
        <rect class="cls-1" x="11" y="11" width="1" height="1"/>
        <rect class="cls-10" x="10" y="7" width="1" height="1"/>
        <rect class="cls-10" x="11" y="7" width="1" height="1"/>
        <rect class="cls-1" x="10" y="18" width="1" height="1"/>
        <rect class="cls-1" x="10" y="8" width="1" height="1"/>
        <rect class="cls-1" x="9" y="15" width="1" height="1"/>
        <rect class="cls-1" x="10" y="17" width="1" height="1"/>
        <rect class="cls-1" x="12" y="14" width="1" height="1"/>
        <rect class="cls-1" x="11" y="15" width="1" height="1"/>
        <rect class="cls-1" x="10" y="13" width="1" height="1"/>
        <rect class="cls-1" x="12" y="13" width="1" height="1"/>
        <rect class="cls-1" x="10" y="10" width="1" height="1"/>
        <rect class="cls-1" x="12" y="12" width="1" height="1"/>
        <rect class="cls-1" x="10" y="16" width="1" height="1"/>
        <rect class="cls-1" x="9" y="14" width="1" height="1"/>
        <rect class="cls-2" x="11" y="6" width="1" height="1"/>
        <rect class="cls-1" x="11" y="12" width="1" height="1"/>
        <rect class="cls-1" x="11" y="9" width="1" height="1"/>
        <rect class="cls-8" x="11" y="14" width="1" height="1"/>
        <rect class="cls-1" x="12" y="8" width="1" height="1"/>
        <rect class="cls-1" x="11" y="10" width="1" height="1"/>
        <rect class="cls-1" x="10" y="19" width="1" height="1"/>
        <rect class="cls-1" x="10" y="15" width="1" height="1"/>
        <rect class="cls-1" x="10" y="12" width="1" height="1"/>
        <rect class="cls-1" x="10" y="9" width="1" height="1"/>
        <rect class="cls-1" x="12" y="11" width="1" height="1"/>
        <rect class="cls-1" x="9" y="17" width="1" height="1"/>
        <rect class="cls-1" x="9" y="19" width="1" height="1"/>
        <rect class="cls-1" x="9" y="12" width="1" height="1"/>
        <rect class="cls-2" x="12" y="6" width="1" height="1"/>
        <rect class="cls-1" x="12" y="15" width="1" height="1"/>
        <rect class="cls-8" x="12" y="9" width="1" height="1"/>
        <rect class="cls-1" x="9" y="18" width="1" height="1"/>
        <rect class="cls-1" x="12" y="10" width="1" height="1"/>
        <rect class="cls-1" x="11" y="8" width="1" height="1"/>
        <rect class="cls-10" x="12" y="7" width="1" height="1"/>
        <rect class="cls-4" x="11" y="18" width="1" height="1"/>
        <rect class="cls-1" x="10" y="11" width="1" height="1"/>
        <rect class="cls-2" x="10" y="6" width="1" height="1"/>
        <rect class="cls-8" x="9" y="11" width="1" height="1"/>
        <rect class="cls-1" x="9" y="10" width="1" height="1"/>
        <rect class="cls-1" x="9" y="9" width="1" height="1"/>
        <rect class="cls-1" x="7" y="17" width="1" height="1"/>
        <rect class="cls-2" x="9" y="6" width="1" height="1"/>
        <rect class="cls-1" x="6" y="19" width="1" height="1"/>
        <rect class="cls-1" x="8" y="10" width="1" height="1"/>
        <rect class="cls-1" x="6" y="12" width="1" height="1"/>
        <rect class="cls-1" x="7" y="8" width="1" height="1"/>
        <rect class="cls-10" x="8" y="7" width="1" height="1"/>
        <rect class="cls-1" x="7" y="7" width="1" height="1"/>
        <rect class="cls-1" x="8" y="19" width="1" height="1"/>
        <rect class="cls-1" x="6" y="8" width="1" height="1"/>
        <rect class="cls-1" x="7" y="16" width="1" height="1"/>
        <rect class="cls-1" x="6" y="15" width="1" height="1"/>
        <rect class="cls-1" x="6" y="9" width="1" height="1"/>
        <rect class="cls-1" x="6" y="11" width="1" height="1"/>
        <rect class="cls-1" x="8" y="13" width="1" height="1"/>
        <rect class="cls-1" x="7" y="10" width="1" height="1"/>
        <rect class="cls-1" x="8" y="14" width="1" height="1"/>
        <rect class="cls-1" x="6" y="18" width="1" height="1"/>
        <rect class="cls-1" x="7" y="19" width="1" height="1"/>
        <rect class="cls-10" x="7" y="6" width="1" height="1"/>
        <rect class="cls-1" x="8" y="9" width="1" height="1"/>
        <rect class="cls-8" x="9" y="8" width="1" height="1"/>
        <rect class="cls-1" x="8" y="11" width="1" height="1"/>
        <rect class="cls-2" x="8" y="6" width="1" height="1"/>
        <rect class="cls-1" x="6" y="13" width="1" height="1"/>
        <rect class="cls-1" x="8" y="17" width="1" height="1"/>
        <rect class="cls-1" x="7" y="9" width="1" height="1"/>
        <rect class="cls-1" x="7" y="18" width="1" height="1"/>
        <rect class="cls-8" x="7" y="15" width="1" height="1"/>
        <rect class="cls-1" x="7" y="12" width="1" height="1"/>
        <rect class="cls-1" x="7" y="11" width="1" height="1"/>
        <rect class="cls-1" x="8" y="15" width="1" height="1"/>
        <rect class="cls-1" x="8" y="16" width="1" height="1"/>
        <rect class="cls-1" x="7" y="14" width="1" height="1"/>
        <rect class="cls-1" x="7" y="13" width="1" height="1"/>
        <rect class="cls-1" x="6" y="16" width="1" height="1"/>
        <rect class="cls-1" x="8" y="12" width="1" height="1"/>
        <rect class="cls-1" x="8" y="18" width="1" height="1"/>
        <rect class="cls-1" x="6" y="17" width="1" height="1"/>
        <rect class="cls-1" x="6" y="14" width="1" height="1"/>
        <rect class="cls-10" x="9" y="7" width="1" height="1"/>
        <rect class="cls-8" x="6" y="10" width="1" height="1"/>
        <rect class="cls-1" x="8" y="8" width="1" height="1"/>
        <rect class="cls-1" x="5" y="17" width="1" height="1"/>
        <rect class="cls-1" x="4" y="13" width="1" height="1"/>
        <rect class="cls-1" x="5" y="16" width="1" height="1"/>
        <rect class="cls-1" x="5" y="15" width="1" height="1"/>
        <rect class="cls-1" x="5" y="14" width="1" height="1"/>
        <rect class="cls-1" x="4" y="14" width="1" height="1"/>
        <rect class="cls-1" x="5" y="11" width="1" height="1"/>
        <rect class="cls-1" x="3" y="11" width="1" height="1"/>
        <rect class="cls-1" x="5" y="9" width="1" height="1"/>
        <rect class="cls-4" x="4" y="16" width="1" height="1"/>
        <rect class="cls-10" x="4" y="7" width="1" height="1"/>
        <rect class="cls-1" x="3" y="19" width="1" height="1"/>
        <rect class="cls-1" x="3" y="17" width="1" height="1"/>
        <rect class="cls-8" x="3" y="9" width="1" height="1"/>
        <rect class="cls-1" x="3" y="14" width="1" height="1"/>
        <rect class="cls-4" x="5" y="13" width="1" height="1"/>
        <rect class="cls-1" x="5" y="10" width="1" height="1"/>
        <rect class="cls-1" x="5" y="7" width="1" height="1"/>
        <rect class="cls-1" x="4" y="19" width="1" height="1"/>
        <rect class="cls-1" x="3" y="10" width="1" height="1"/>
        <rect class="cls-1" x="3" y="18" width="1" height="1"/>
        <rect class="cls-10" x="3" y="7" width="1" height="1"/>
        <rect class="cls-1" x="4" y="17" width="1" height="1"/>
        <rect class="cls-2" x="4" y="6" width="1" height="1"/>
        <rect class="cls-1" x="5" y="12" width="1" height="1"/>
        <rect class="cls-1" x="5" y="8" width="1" height="1"/>
        <rect class="cls-10" x="5" y="6" width="1" height="1"/>
        <rect class="cls-1" x="3" y="8" width="1" height="1"/>
        <rect class="cls-1" x="4" y="11" width="1" height="1"/>
        <rect class="cls-1" x="4" y="10" width="1" height="1"/>
        <rect class="cls-2" x="3" y="6" width="1" height="1"/>
        <rect class="cls-1" x="3" y="16" width="1" height="1"/>
        <rect class="cls-8" x="3" y="13" width="1" height="1"/>
        <rect class="cls-1" x="3" y="15" width="1" height="1"/>
        <rect class="cls-1" x="3" y="12" width="1" height="1"/>
        <rect class="cls-1" x="4" y="15" width="1" height="1"/>
        <rect class="cls-1" x="6" y="7" width="1" height="1"/>
        <rect class="cls-10" x="6" y="6" width="1" height="1"/>
        <rect class="cls-1" x="4" y="12" width="1" height="1"/>
        <rect class="cls-1" x="5" y="19" width="1" height="1"/>
        <rect class="cls-1" x="4" y="8" width="1" height="1"/>
        <rect class="cls-1" x="5" y="18" width="1" height="1"/>
        <rect class="cls-1" x="4" y="9" width="1" height="1"/>
        <rect class="cls-1" x="4" y="18" width="1" height="1"/>
        <rect class="cls-1" x="2" y="14" width="1" height="1"/>
        <rect class="cls-1" x="1" y="9" width="1" height="1"/>
        <rect class="cls-10" x="1" y="6" width="1" height="1"/>
        <rect class="cls-10" y="7" width="1" height="1"/>
        <rect class="cls-1" x="1" y="15" width="1" height="1"/>
        <rect class="cls-1" x="2" y="13" width="1" height="1"/>
        <rect class="cls-1" y="16" width="1" height="1"/>
        <rect class="cls-10" y="6" width="1" height="1"/>
        <rect class="cls-1" x="2" y="12" width="1" height="1"/>
        <rect class="cls-1" y="9" width="1" height="1"/>
        <rect class="cls-1" x="2" y="11" width="1" height="1"/>
        <rect class="cls-1" x="2" y="10" width="1" height="1"/>
        <rect class="cls-1" x="2" y="7" width="1" height="1"/>
        <rect class="cls-1" y="19" width="1" height="1"/>
        <rect class="cls-1" y="13" width="1" height="1"/>
        <rect class="cls-10" x="1" y="18" width="1" height="1"/>
        <rect class="cls-1" x="1" y="16" width="1" height="1"/>
        <rect class="cls-1" x="1" y="14" width="1" height="1"/>
        <rect class="cls-1" x="1" y="12" width="1" height="1"/>
        <rect class="cls-1" y="11" width="1" height="1"/>
        <rect class="cls-1" y="12" width="1" height="1"/>
        <rect class="cls-1" x="1" y="10" width="1" height="1"/>
        <rect class="cls-1" y="10" width="1" height="1"/>
        <rect class="cls-1" y="18" width="1" height="1"/>
        <rect class="cls-10" x="2" y="6" width="1" height="1"/>
        <rect class="cls-4" x="1" y="11" width="1" height="1"/>
        <rect class="cls-1" y="15" width="1" height="1"/>
        <rect class="cls-1" x="2" y="19" width="1" height="1"/>
        <rect class="cls-1" x="2" y="9" width="1" height="1"/>
        <rect class="cls-1" x="1" y="19" width="1" height="1"/>
        <rect class="cls-1" x="2" y="8" width="1" height="1"/>
        <rect class="cls-1" x="1" y="13" width="1" height="1"/>
        <rect class="cls-1" x="2" y="18" width="1" height="1"/>
        <rect class="cls-1" x="2" y="17" width="1" height="1"/>
        <rect class="cls-1" x="2" y="16" width="1" height="1"/>
        <rect class="cls-1" y="17" width="1" height="1"/>
        <rect class="cls-10" x="1" y="7" width="1" height="1"/>
        <rect class="cls-1" y="14" width="1" height="1"/>
        <rect class="cls-1" x="2" y="15" width="1" height="1"/>
        <rect class="cls-1" x="1" y="8" width="1" height="1"/>
        <rect class="cls-1" y="8" width="1" height="1"/>
        <rect class="cls-4" x="1" y="17" width="1" height="1"/>
        <rect class="cls-2" x="19" y="5" width="1" height="1"/>
        <rect class="cls-2" x="16" y="5" width="1" height="1"/>
        <rect class="cls-2" x="18" y="5" width="1" height="1"/>
        <rect class="cls-2" x="17" y="5" width="1" height="1"/>
        <rect class="cls-2" x="15" y="5" width="1" height="1"/>
        <rect class="cls-2" x="13" y="5" width="1" height="1"/>
        <rect class="cls-2" x="14" y="5" width="1" height="1"/>
        <rect class="cls-2" x="11" y="5" width="1" height="1"/>
        <rect class="cls-2" x="10" y="5" width="1" height="1"/>
        <rect class="cls-2" x="12" y="5" width="1" height="1"/>
        <rect class="cls-2" x="7" y="5" width="1" height="1"/>
        <rect class="cls-2" x="9" y="5" width="1" height="1"/>
        <rect class="cls-2" x="8" y="5" width="1" height="1"/>
        <rect class="cls-2" x="5" y="5" width="1" height="1"/>
        <rect class="cls-2" x="3" y="5" width="1" height="1"/>
        <rect class="cls-2" x="6" y="5" width="1" height="1"/>
        <rect class="cls-2" x="4" y="5" width="1" height="1"/>
        <rect class="cls-2" x="2" y="5" width="1" height="1"/>
        <rect class="cls-2" x="1" y="5" width="1" height="1"/>
        <rect class="cls-2" y="5" width="1" height="1"/>
        <rect class="cls-2" x="11" y="4" width="1" height="1"/>
        <rect class="cls-2" x="10" y="4" width="1" height="1"/>
        <rect class="cls-2" x="9" y="4" width="1" height="1"/>
        <rect class="cls-7" x="19" y="4" width="1" height="1"/>
        <rect class="cls-7" x="17" y="4" width="1" height="1"/>
        <rect class="cls-7" x="16" y="4" width="1" height="1"/>
        <rect class="cls-7" x="18" y="4" width="1" height="1"/>
        <rect class="cls-7" x="13" y="4" width="1" height="1"/>
        <rect class="cls-3" x="15" y="4" width="1" height="1"/>
        <rect class="cls-7" x="14" y="4" width="1" height="1"/>
        <rect class="cls-2" x="12" y="4" width="1" height="1"/>
        <rect class="cls-2" x="7" y="4" width="1" height="1"/>
        <rect class="cls-2" x="8" y="4" width="1" height="1"/>
        <rect class="cls-3" x="5" y="4" width="1" height="1"/>
        <rect class="cls-7" x="3" y="4" width="1" height="1"/>
        <rect class="cls-5" x="4" y="4" width="1" height="1"/>
        <rect class="cls-2" x="6" y="4" width="1" height="1"/>
        <rect class="cls-7" x="2" y="4" width="1" height="1"/>
        <rect class="cls-7" x="1" y="4" width="1" height="1"/>
        <rect class="cls-7" y="4" width="1" height="1"/>
        <rect class="cls-3" x="14" y="3" width="1" height="1"/>
        <rect class="cls-3" x="15" y="3" width="1" height="1"/>
        <rect class="cls-7" x="13" y="3" width="1" height="1"/>
        <rect class="cls-7" x="10" y="3" width="1" height="1"/>
        <rect class="cls-7" x="11" y="3" width="1" height="1"/>
        <rect class="cls-7" x="12" y="3" width="1" height="1"/>
        <rect class="cls-7" x="8" y="3" width="1" height="1"/>
        <rect class="cls-7" x="9" y="3" width="1" height="1"/>
        <rect class="cls-7" x="7" y="3" width="1" height="1"/>
        <rect class="cls-3" x="5" y="3" width="1" height="1"/>
        <rect class="cls-3" x="6" y="3" width="1" height="1"/>
        <rect class="cls-7" x="16" y="2" width="1" height="1"/>
        <rect class="cls-3" x="13" y="2" width="1" height="1"/>
        <rect class="cls-3" x="14" y="2" width="1" height="1"/>
        <rect class="cls-5" x="15" y="2" width="1" height="1"/>
        <rect class="cls-7" x="12" y="2" width="1" height="1"/>
        <rect class="cls-7" x="10" y="2" width="1" height="1"/>
        <rect class="cls-7" x="11" y="2" width="1" height="1"/>
        <rect class="cls-7" x="7" y="2" width="1" height="1"/>
        <rect class="cls-7" x="8" y="2" width="1" height="1"/>
        <rect class="cls-7" x="9" y="2" width="1" height="1"/>
        <rect class="cls-5" x="5" y="2" width="1" height="1"/>
        <rect class="cls-3" x="6" y="2" width="1" height="1"/>
        <rect class="cls-7" x="4" y="2" width="1" height="1"/>
        <rect class="cls-3" x="17" y="3" width="1" height="1"/>
        <rect class="cls-3" x="18" y="3" width="1" height="1"/>
        <rect class="cls-3" x="16" y="3" width="1" height="1"/>
        <rect class="cls-3" x="19" y="3" width="1" height="1"/>
        <rect class="cls-3" x="16" y="1" width="1" height="1"/>
        <rect class="cls-5" x="14" y="1" width="1" height="1"/>
        <rect class="cls-3" x="13" y="1" width="1" height="1"/>
        <rect class="cls-3" x="15" y="1" width="1" height="1"/>
        <rect class="cls-3" x="11" y="1" width="1" height="1"/>
        <rect class="cls-3" x="12" y="1" width="1" height="1"/>
        <rect class="cls-3" x="7" y="1" width="1" height="1"/>
        <rect class="cls-3" x="5" y="1" width="1" height="1"/>
        <rect class="cls-5" x="6" y="1" width="1" height="1"/>
        <rect class="cls-3" x="4" y="1" width="1" height="1"/>
        <rect class="cls-3" x="3" y="2" width="1" height="1"/>
        <rect class="cls-3" x="3" y="1" width="1" height="1"/>
        <rect class="cls-5" x="4" y="3" width="1" height="1"/>
        <rect class="cls-3" x="3" y="3" width="1" height="1"/>
        <rect class="cls-3" x="2" y="3" width="1" height="1"/>
        <rect class="cls-3" x="1" y="3" width="1" height="1"/>
        <rect class="cls-5" x="18" y="1" width="1" height="1"/>
        <rect class="cls-5" x="18" y="2" width="1" height="1"/>
        <rect class="cls-5" x="19" y="2" width="1" height="1"/>
        <rect class="cls-3" x="10" y="1" width="1" height="1"/>
        <rect class="cls-5" x="8" y="1" width="1" height="1"/>
        <rect class="cls-5" x="9" y="1" width="1" height="1"/>
        <rect class="cls-5" x="17" y="2" width="1" height="1"/>
        <rect class="cls-5" x="17" y="1" width="1" height="1"/>
        <rect class="cls-5" x="17" width="1" height="1"/>
        <rect class="cls-5" x="16" width="1" height="1"/>
        <rect class="cls-5" x="13" width="1" height="1"/>
        <rect class="cls-5" x="14" width="1" height="1"/>
        <rect class="cls-5" x="15" width="1" height="1"/>
        <rect class="cls-5" x="11" width="1" height="1"/>
        <rect class="cls-6" x="10" width="1" height="1"/>
        <rect class="cls-5" x="12" width="1" height="1"/>
        <rect class="cls-6" x="7" width="1" height="1"/>
        <rect class="cls-5" x="6" width="1" height="1"/>
        <rect class="cls-5" x="4" width="1" height="1"/>
        <rect class="cls-5" x="5" width="1" height="1"/>
        <rect class="cls-5" x="3" width="1" height="1"/>
        <rect class="cls-9" x="2" width="1" height="1"/>
        <rect class="cls-5" x="2" y="1" width="1" height="1"/>
        <rect class="cls-5" x="2" y="2" width="1" height="1"/>
        <rect class="cls-5" x="1" y="2" width="1" height="1"/>
        <rect class="cls-5" y="3" width="1" height="1"/>
      </g>
      <g>
        <line class="cls-11" x1="19" y1="20" x2="19" y2="19"/>
        <line class="cls-11" x1="18" y1="19" x2="18" y2="20"/>
        <line class="cls-11" x1="17" y1="20" x2="17" y2="19"/>
        <line class="cls-11" x1="16" y1="19" x2="16" y2="20"/>
        <line class="cls-11" x1="15" y1="20" x2="15" y2="19"/>
        <line class="cls-11" x1="14" y1="19" x2="14" y2="20"/>
        <line class="cls-11" x1="13" y1="20" x2="13" y2="19"/>
        <line class="cls-11" x1="12" y1="19" x2="12" y2="20"/>
        <line class="cls-11" x1="11" y1="20" x2="11" y2="19"/>
        <line class="cls-11" x1="10" y1="19" x2="10" y2="20"/>
        <line class="cls-11" x1="9" y1="20" x2="9" y2="19"/>
        <line class="cls-11" x1="8" y1="19" x2="8" y2="20"/>
        <line class="cls-11" x1="7" y1="20" x2="7" y2="19"/>
        <line class="cls-11" x1="6" y1="19" x2="6" y2="20"/>
        <line class="cls-11" x1="5" y1="20" x2="5" y2="19"/>
        <line class="cls-11" x1="4" y1="19" x2="4" y2="20"/>
        <line class="cls-11" x1="3" y1="20" x2="3" y2="19"/>
        <line class="cls-11" x1="2" y1="19" x2="2" y2="20"/>
        <line class="cls-11" x1="1" y1="19" y2="19"/>
        <line class="cls-11" y1="18" x2="1" y2="18"/>
        <line class="cls-11" x1="1" y1="17" y2="17"/>
        <line class="cls-11" y1="16" x2="1" y2="16"/>
        <line class="cls-11" x1="1" y1="15" y2="15"/>
        <line class="cls-11" y1="14" x2="1" y2="14"/>
        <line class="cls-11" x1="1" y1="13" y2="13"/>
        <line class="cls-11" y1="12" x2="1" y2="12"/>
        <line class="cls-11" x1="1" y1="11" y2="11"/>
        <line class="cls-11" y1="10" x2="1" y2="10"/>
        <line class="cls-11" x1="1" y1="9" y2="9"/>
      </g>
    </g>
  </g>
</svg>