<?xml version="1.0" encoding="UTF-8"?>
<svg id="EInfärben" xmlns="http://www.w3.org/2000/svg" version="1.1" viewBox="0 0 20 20">
  <defs>
    <style>
      .cls-1 {
        fill: #69b42d;
      }

      .cls-1, .cls-2 {
        stroke-width: 0px;
      }

      .cls-3 {
        fill: #59b031;
        stroke: #59b031;
      }

      .cls-3, .cls-4 {
        stroke-miterlimit: 10;
      }

      .cls-2 {
        fill: #fac080;
        opacity: .18;
      }

      .cls-4 {
        fill: #1d1d1b;
        stroke: #1d1d1b;
      }
    </style>
  </defs>
  <g>
    <path class="cls-2" d="M7.28,8.92c.7,0-.51-1.97-.96-1.97-.7,0,.51,1.97.96,1.97Z"/>
    <path class="cls-2" d="M6.22,7.73c.64,0,.22-1.12-.17-1.12-.64,0-.22,1.12.17,1.12Z"/>
    <path class="cls-2" d="M6.54,7.18c.15,0,.27-.61.24-.61-.15,0-.27.61-.24.61Z"/>
    <path class="cls-2" d="M6.95,7.64c.57,0-.67-1.33-1.14-1.33-.57,0,.67,1.33,1.14,1.33Z"/>
    <path class="cls-2" d="M6.95,7.03c.3,0,.38-.65.08-.65s-.38.65-.08.65Z"/>
    <path class="cls-2" d="M5.85,7.66c.11,0,.73-.23.48-.23-.11,0-.73.23-.48.23Z"/>
    <path class="cls-2" d="M7.77,7.52c.3,0,.27-.32.18-.49-.13-.25-.89-.41-1.15-.41-.3,0-.27.32-.18.49.13.25.89.41,1.15.41Z"/>
  </g>
  <g>
    <path class="cls-2" d="M31.38,15.95c.7,0-.51-1.97-.96-1.97-.7,0,.51,1.97.96,1.97Z"/>
    <path class="cls-2" d="M30.32,14.76c.64,0,.22-1.12-.17-1.12-.64,0-.22,1.12.17,1.12Z"/>
    <path class="cls-2" d="M30.63,14.21c.15,0,.27-.61.24-.61-.15,0-.27.61-.24.61Z"/>
    <path class="cls-2" d="M31.04,14.67c.57,0-.67-1.33-1.14-1.33-.57,0,.67,1.33,1.14,1.33Z"/>
    <path class="cls-2" d="M31.05,14.06c.3,0,.38-.65.08-.65s-.38.65-.08.65Z"/>
    <path class="cls-2" d="M29.95,14.69c.11,0,.73-.23.48-.23-.11,0-.73.23-.48.23Z"/>
    <path class="cls-2" d="M31.86,14.55c.3,0,.27-.32.18-.49-.13-.25-.89-.41-1.15-.41-.3,0-.27.32-.18.49.13.25.89.41,1.15.41Z"/>
  </g>
  <ellipse class="cls-3" cx="10.05" cy="5.7" rx="6.8" ry="3.42"/>
  <ellipse class="cls-3" cx="10" cy="9.06" rx="2.47" ry="2.34"/>
  <ellipse class="cls-4" cx="6.98" cy="5.64" rx="1.93" ry="1.83"/>
  <ellipse class="cls-4" cx="13.08" cy="5.41" rx="1.93" ry="1.83"/>
  <path class="cls-1" d="M9.34,16.19c.49.03.98.04,1.47.03,0-.07.01-.14,0-.22,0-.17,0-.34,0-.52,0-.59,0-1.18,0-1.77,0-.18-.01-2.5-.02-2.5-.49.02-.98,0-1.47-.03,0,.07-.01.14,0,.22,0,.17,0,.34,0,.52,0,.59,0,1.18,0,1.77s0,1.18,0,1.77c0,.07,0,.73.02.73h0Z"/>
  <path class="cls-1" d="M9.31,20.08c.48-.1.98-.12,1.47-.08,0-.07.01-.14,0-.22,0-.17,0-.34,0-.52,0-.59,0-1.18,0-1.77s0-1.18,0-1.77c0-.07,0-.73-.02-.73-.49-.05-.99-.02-1.47.08,0,.07-.01.14,0,.22,0,.17,0,.34,0,.52,0,.59,0,1.18,0,1.77s0,1.18,0,1.77c0,.07.02.73.02.73h0Z"/>
  <path class="cls-1" d="M7.56,22.75l4.56.04s.05-5,0-5l-4.56-.04s-.05,5,0,5h0Z"/>
  <path class="cls-1" d="M12.53,23.34s.04-5,0-5-.04,5,0,5h0Z"/>
  <path class="cls-1" d="M12.53,23.34s.04-5,0-5-.04,5,0,5h0Z"/>
  <path class="cls-1" d="M7.44,23.31s.04-5,0-5-.04,5,0,5h0Z"/>
  <path class="cls-1" d="M7.44,23.31s.04-5,0-5-.04,5,0,5h0Z"/>
  <path class="cls-1" d="M6.56,16.91c.66-.53,1.29-1.1,1.9-1.69.5-.49,1.03-1.25,1.76-1.39.78-.15,1.3.56,1.75,1.07.27.3.58.52.89.78.32.27.54.6.69.99-.06-.15,0-.46,0-.62,0-.18.06-.46,0-.62-.14-.37-.35-.69-.65-.95s-.62-.47-.89-.77c-.47-.52-.98-1.28-1.79-1.12-.71.14-1.23.87-1.71,1.34-.62.61-1.27,1.19-1.94,1.73-.06.05,0,.54,0,.62s.07.57,0,.62h0Z"/>
  <path class="cls-1" d="M6.08,16.81c.18-.37.46-.62.78-.87.38-.3.77-.6,1.16-.9.37-.28.74-.56,1.11-.84.31-.23.66-.57,1.07-.57s.79.3,1.1.5c.35.22.7.46,1.03.71.71.53,1.35,1.13,1.95,1.79-.06-.07,0-.53,0-.62,0-.11.07-.54,0-.62-.58-.64-1.21-1.22-1.89-1.74-.33-.25-.68-.49-1.03-.71-.33-.21-.75-.54-1.16-.54-.38,0-.72.31-1.01.53-.37.28-.74.55-1.11.84-.39.3-.78.6-1.16.9-.33.26-.65.52-.84.91-.07.14,0,.47,0,.62s.07.48,0,.62h0Z"/>
  <path class="cls-1" d="M6.26,16.88c.55-.66,1.15-1.27,1.8-1.83s1.36-1.11,2.12-1.47c.82-.39,1.57.45,2.15.95s1.47,1.18,1.54,2v-1.23s0,.08,0,.11c-.01.38.01.91,0,1.21.02-.44.03-.89,0-1.33s-.3-.79-.6-1.1c-.36-.39-.75-.75-1.16-1.1-.35-.3-.76-.7-1.21-.85-.47-.16-.91.17-1.29.41-.44.27-.86.57-1.26.89-.77.61-1.47,1.31-2.1,2.07-.07.09,0,.51,0,.62s.08.54,0,.62h0Z"/>
  <path class="cls-1" d="M10.09,12.42c-.82.63-1.66,1.23-2.47,1.88-.38.3-.64.67-.97,1.02s-.72.58-1.12.82c-.05.03,0,.55,0,.62,0,.15,0,.29,0,.44,0,.02.01.18,0,.18.38-.23.77-.47,1.09-.79.34-.35.61-.74,1-1.05.81-.64,1.65-1.25,2.47-1.88.01,0,0-.2,0-.18,0-.15,0-.29,0-.44s0-.29,0-.44c0-.02-.02-.17,0-.18h0Z"/>
  <path class="cls-1" d="M8.82,14.65c-.08,1.16-.14,2.32-.17,3.49,0,.23,0,.46,0,.69,0,.18.02.37,0,.54.11-1.18.18-2.36.24-3.54.01-.26,0-.51,0-.77,0-.12,0-.25,0-.37,0-.01,0-.12,0-.06-.05,1.17-.13,2.33-.23,3.5v1.23c.03-1.16.09-2.33.17-3.49.02-.25,0-.51,0-.77,0-.12,0-.25,0-.37,0-.01,0-.12,0-.06h0Z"/>
  <path class="cls-1" d="M11.79,14.49l-.1,1.83c-.02.3-.03.61-.06.91-.01.14-.03.28-.04.43s-.02.32-.07.46c-.04.1-.03.01-.03-.05,0-.07,0-.14,0-.22,0-.03,0-.21,0-.13,0,.13,0-.07,0-.09,0-.37,0-.74,0-1.12,0-.58-.04-1.16-.17-1.72.01.05,0,.15,0,.18,0,.15,0,.29,0,.44,0,.2-.04.43,0,.62.06.28.11.56.13.85.01.15.02.29.03.44,0,.07,0,.15,0,.22,0,.13,0-.17,0-.04,0,.64,0,1.29.03,1.94v.02c.13-.6.16-1.22.19-1.84l.1-1.94c.01-.26,0-.51,0-.77,0-.12,0-.25,0-.37,0-.01,0-.12,0-.06h0Z"/>
</svg>