<?xml version="1.0" encoding="UTF-8"?>
<svg id="EInfärben" xmlns="http://www.w3.org/2000/svg" version="1.1" viewBox="0 0 20 20">
  <defs>
    <style>
      .cls-1 {
        fill: #6ab42d;
      }

      .cls-1, .cls-2, .cls-3, .cls-4, .cls-5, .cls-6 {
        stroke-width: 0px;
      }

      .cls-2 {
        fill: #69b42d;
      }

      .cls-3 {
        fill: #047f36;
      }

      .cls-4 {
        fill: #1e7532;
      }

      .cls-5 {
        fill: #fff;
      }

      .cls-6 {
        fill: #69b42f;
      }
    </style>
  </defs>
  <g id="Einfärben-2" data-name="Einfärben">
    <g>
      <rect class="cls-3" x="11" y="3" width="1" height="1"/>
      <rect class="cls-3" x="9" y="3" width="1" height="1"/>
      <rect class="cls-6" x="10" y="3" width="1" height="1"/>
      <rect class="cls-6" x="8" y="4" width="1" height="1"/>
      <rect class="cls-6" x="12" y="4" width="1" height="1"/>
      <rect class="cls-4" x="7" y="13" width="1" height="1"/>
      <rect class="cls-6" x="7" y="15" width="1" height="1"/>
      <rect class="cls-6" x="7" y="14" width="1" height="1"/>
      <rect class="cls-4" x="7" y="16" width="1" height="1"/>
      <rect class="cls-4" x="6" y="16" width="1" height="1"/>
      <rect class="cls-6" x="6" y="15" width="1" height="1"/>
      <rect class="cls-4" x="5" y="15" width="1" height="1"/>
      <rect class="cls-5" x="3" y="15" width="1" height="1"/>
      <rect class="cls-4" x="6" y="8" width="1" height="1"/>
      <rect class="cls-4" x="6" y="9" width="1" height="1"/>
      <rect class="cls-6" x="6" y="14" width="1" height="1"/>
      <rect class="cls-4" x="6" y="13" width="1" height="1"/>
      <rect class="cls-4" x="6" y="12" width="1" height="1"/>
      <rect class="cls-4" x="6" y="11" width="1" height="1"/>
      <rect class="cls-4" x="6" y="10" width="1" height="1"/>
      <rect class="cls-4" x="4" y="11" width="1" height="1"/>
      <rect class="cls-4" x="4" y="10" width="1" height="1"/>
      <rect class="cls-4" x="4" y="8" width="1" height="1"/>
      <rect class="cls-5" x="3" y="14" width="1" height="1"/>
      <rect class="cls-5" x="3" y="11" width="1" height="1"/>
      <rect class="cls-5" x="3" y="9" width="1" height="1"/>
      <rect class="cls-5" x="3" y="12" width="1" height="1"/>
      <rect class="cls-5" x="3" y="8" width="1" height="1"/>
      <rect class="cls-5" x="3" y="7" width="1" height="1"/>
      <rect class="cls-4" x="4" y="9" width="1" height="1"/>
      <rect class="cls-5" x="3" y="13" width="1" height="1"/>
      <rect class="cls-5" x="3" y="10" width="1" height="1"/>
      <rect class="cls-6" x="5" y="13" width="1" height="1"/>
      <rect class="cls-6" x="5" y="11" width="1" height="1"/>
      <rect class="cls-6" x="5" y="14" width="1" height="1"/>
      <rect class="cls-6" x="5" y="10" width="1" height="1"/>
      <rect class="cls-6" x="5" y="12" width="1" height="1"/>
      <rect class="cls-6" x="5" y="9" width="1" height="1"/>
      <rect class="cls-6" x="5" y="8" width="1" height="1"/>
      <rect class="cls-6" x="5" y="7" width="1" height="1"/>
      <rect class="cls-4" x="4" y="13" width="1" height="1"/>
      <rect class="cls-4" x="4" y="12" width="1" height="1"/>
      <rect class="cls-4" x="4" y="14" width="1" height="1"/>
      <rect class="cls-6" x="14" y="7" width="1" height="1"/>
      <rect class="cls-6" x="14" y="9" width="1" height="1"/>
      <rect class="cls-6" x="14" y="8" width="1" height="1"/>
      <rect class="cls-4" x="15" y="10" width="1" height="1"/>
      <rect class="cls-4" x="15" y="9" width="1" height="1"/>
      <rect class="cls-4" x="15" y="8" width="1" height="1"/>
      <rect class="cls-4" x="15" y="7" width="1" height="1"/>
      <polygon class="cls-2" points="13 10 14 10 14 11 13.22 11 13 11 13 10"/>
      <polygon class="cls-4" points="13.22 11 14 11 14 11.16 14 12 13 12 13 11 13.22 11"/>
      <polygon class="cls-4" points="15 11 15 12 14 12 14 11.16 14 11 15 11"/>
      <rect class="cls-6" x="14" y="10" width="1" height="1"/>
      <rect class="cls-1" x="10" y="4" width="1" height="1"/>
      <rect class="cls-3" x="11" y="4" width="1" height="1"/>
      <rect class="cls-3" x="9" y="4" width="1" height="1"/>
      <rect class="cls-2" x="12" y="13" width="1" height="1"/>
      <rect class="cls-3" x="11" y="14" width="1" height="1"/>
      <rect class="cls-2" x="10" y="14" width="1" height="1"/>
      <rect class="cls-2" x="10" y="15" width="1" height="1"/>
      <rect class="cls-2" x="12" y="11" width="1" height="1"/>
      <rect class="cls-2" x="12" y="14" width="1" height="1"/>
      <rect class="cls-2" x="10" y="18" width="1" height="1"/>
      <rect class="cls-3" x="11" y="6" width="1" height="1"/>
      <rect class="cls-2" x="10" y="17" width="1" height="1"/>
      <rect class="cls-2" x="10" y="12" width="1" height="1"/>
      <rect class="cls-3" x="11" y="17" width="1" height="1"/>
      <rect class="cls-3" x="11" y="7" width="1" height="1"/>
      <rect class="cls-2" x="12" y="19" width="1" height="1"/>
      <rect class="cls-2" x="12" y="6" width="1" height="1"/>
      <rect class="cls-2" x="12" y="12" width="1" height="1"/>
      <rect class="cls-2" x="12" y="9" width="1" height="1"/>
      <rect class="cls-3" x="11" y="8" width="1" height="1"/>
      <rect class="cls-3" x="11" y="10" width="1" height="1"/>
      <rect class="cls-2" x="12" y="18" width="1" height="1"/>
      <rect class="cls-2" x="12" y="17" width="1" height="1"/>
      <rect class="cls-2" x="12" y="16" width="1" height="1"/>
      <rect class="cls-2" x="12" y="8" width="1" height="1"/>
      <rect class="cls-3" x="11" y="5" width="1" height="1"/>
      <rect class="cls-3" x="11" y="19" width="1" height="1"/>
      <rect class="cls-3" x="11" y="16" width="1" height="1"/>
      <rect class="cls-2" x="10" y="16" width="1" height="1"/>
      <rect class="cls-2" x="12" y="15" width="1" height="1"/>
      <rect class="cls-3" x="11" y="11" width="1" height="1"/>
      <rect class="cls-3" x="11" y="18" width="1" height="1"/>
      <rect class="cls-3" x="11" y="15" width="1" height="1"/>
      <rect class="cls-3" x="11" y="12" width="1" height="1"/>
      <rect class="cls-2" x="12" y="5" width="1" height="1"/>
      <rect class="cls-3" x="11" y="9" width="1" height="1"/>
      <rect class="cls-2" x="10" y="13" width="1" height="1"/>
      <rect class="cls-2" x="12" y="7" width="1" height="1"/>
      <rect class="cls-3" x="11" y="13" width="1" height="1"/>
      <rect class="cls-2" x="10" y="19" width="1" height="1"/>
      <rect class="cls-2" x="12" y="10" width="1" height="1"/>
      <rect class="cls-2" x="10" y="10" width="1" height="1"/>
      <rect class="cls-3" x="9" y="15" width="1" height="1"/>
      <rect class="cls-2" x="10" y="7" width="1" height="1"/>
      <rect class="cls-2" x="10" y="6" width="1" height="1"/>
      <rect class="cls-2" x="10" y="5" width="1" height="1"/>
      <rect class="cls-3" x="9" y="19" width="1" height="1"/>
      <rect class="cls-3" x="9" y="18" width="1" height="1"/>
      <rect class="cls-3" x="9" y="17" width="1" height="1"/>
      <rect class="cls-3" x="9" y="16" width="1" height="1"/>
      <rect class="cls-2" x="10" y="9" width="1" height="1"/>
      <rect class="cls-2" x="10" y="8" width="1" height="1"/>
      <rect class="cls-3" x="9" y="14" width="1" height="1"/>
      <rect class="cls-3" x="9" y="12" width="1" height="1"/>
      <rect class="cls-3" x="9" y="10" width="1" height="1"/>
      <rect class="cls-3" x="9" y="11" width="1" height="1"/>
      <rect class="cls-3" x="9" y="13" width="1" height="1"/>
      <rect class="cls-3" x="9" y="8" width="1" height="1"/>
      <rect class="cls-3" x="9" y="6" width="1" height="1"/>
      <rect class="cls-3" x="9" y="7" width="1" height="1"/>
      <rect class="cls-3" x="9" y="5" width="1" height="1"/>
      <rect class="cls-3" x="9" y="9" width="1" height="1"/>
      <rect class="cls-2" x="8" y="19" width="1" height="1"/>
      <rect class="cls-2" x="8" y="18" width="1" height="1"/>
      <rect class="cls-2" x="8" y="16" width="1" height="1"/>
      <rect class="cls-2" x="8" y="17" width="1" height="1"/>
      <rect class="cls-2" x="8" y="15" width="1" height="1"/>
      <rect class="cls-2" x="8" y="14" width="1" height="1"/>
      <rect class="cls-2" x="8" y="13" width="1" height="1"/>
      <rect class="cls-2" x="8" y="12" width="1" height="1"/>
      <rect class="cls-2" x="8" y="11" width="1" height="1"/>
      <rect class="cls-2" x="8" y="10" width="1" height="1"/>
      <rect class="cls-2" x="8" y="8" width="1" height="1"/>
      <rect class="cls-2" x="8" y="9" width="1" height="1"/>
      <rect class="cls-2" x="8" y="7" width="1" height="1"/>
      <rect class="cls-2" x="8" y="6" width="1" height="1"/>
      <rect class="cls-2" x="8" y="5" width="1" height="1"/>
      <rect class="cls-2" x="10" y="11" width="1" height="1"/>
    </g>
  </g>
</svg>