<?xml version="1.0" encoding="UTF-8"?>
<svg id="EInfärben" xmlns="http://www.w3.org/2000/svg" version="1.1" viewBox="0 0 20 20">
  <defs>
    <style>
      .cls-1 {
        fill: #567bbd;
      }

      .cls-1, .cls-2, .cls-3, .cls-4, .cls-5, .cls-6, .cls-7 {
        stroke-width: 0px;
      }

      .cls-2 {
        fill: #f0e500;
      }

      .cls-3 {
        fill: #6164ab;
      }

      .cls-4 {
        fill: #8786c0;
      }

      .cls-5 {
        fill: #43ab34;
      }

      .cls-6 {
        fill: #f5ee8b;
      }

      .cls-7 {
        fill: #694494;
      }
    </style>
  </defs>
  <g id="Einfärben-2" data-name="Einfärben">
    <g>
      <rect class="cls-4" x="16" y="9" width="1" height="1"/>
      <rect class="cls-3" x="16" y="7" width="1" height="1"/>
      <rect class="cls-3" x="16" y="6" width="1" height="1"/>
      <rect class="cls-4" x="16" y="4" width="1" height="1"/>
      <rect class="cls-7" x="15" y="12" width="1" height="1"/>
      <rect class="cls-7" x="15" y="11" width="1" height="1"/>
      <rect class="cls-4" x="15" y="9" width="1" height="1"/>
      <rect class="cls-1" x="15" y="8" width="1" height="1"/>
      <rect class="cls-3" x="15" y="7" width="1" height="1"/>
      <rect class="cls-3" x="15" y="6" width="1" height="1"/>
      <rect class="cls-1" x="15" y="5" width="1" height="1"/>
      <rect class="cls-4" x="15" y="4" width="1" height="1"/>
      <rect class="cls-7" x="15" y="2" width="1" height="1"/>
      <rect class="cls-7" x="15" y="1" width="1" height="1"/>
      <rect class="cls-7" x="14" y="12" width="1" height="1"/>
      <rect class="cls-7" x="14" y="11" width="1" height="1"/>
      <rect class="cls-7" x="14" y="10" width="1" height="1"/>
      <rect class="cls-4" x="14" y="9" width="1" height="1"/>
      <rect class="cls-1" x="14" y="8" width="1" height="1"/>
      <rect class="cls-3" x="14" y="7" width="1" height="1"/>
      <rect class="cls-3" x="14" y="6" width="1" height="1"/>
      <rect class="cls-1" x="14" y="5" width="1" height="1"/>
      <rect class="cls-4" x="14" y="4" width="1" height="1"/>
      <rect class="cls-7" x="14" y="3" width="1" height="1"/>
      <rect class="cls-7" x="14" y="2" width="1" height="1"/>
      <rect class="cls-7" x="14" y="1" width="1" height="1"/>
      <rect class="cls-7" x="13" y="11" width="1" height="1"/>
      <rect class="cls-7" x="13" y="10" width="1" height="1"/>
      <rect class="cls-7" x="13" y="9" width="1" height="1"/>
      <rect class="cls-1" x="13" y="8" width="1" height="1"/>
      <rect class="cls-3" x="13" y="7" width="1" height="1"/>
      <rect class="cls-3" x="13" y="6" width="1" height="1"/>
      <rect class="cls-1" x="13" y="5" width="1" height="1"/>
      <rect class="cls-7" x="13" y="4" width="1" height="1"/>
      <rect class="cls-7" x="13" y="3" width="1" height="1"/>
      <rect class="cls-7" x="13" y="2" width="1" height="1"/>
      <rect class="cls-4" x="12" y="13" width="1" height="1"/>
      <rect class="cls-4" x="12" y="12" width="1" height="1"/>
      <rect class="cls-4" x="12" y="11" width="1" height="1"/>
      <rect class="cls-7" x="12" y="10" width="1" height="1"/>
      <rect class="cls-7" x="12" y="9" width="1" height="1"/>
      <rect class="cls-7" x="12" y="8" width="1" height="1"/>
      <rect class="cls-3" x="12" y="7" width="1" height="1"/>
      <rect class="cls-3" x="12" y="6" width="1" height="1"/>
      <rect class="cls-7" x="12" y="5" width="1" height="1"/>
      <rect class="cls-7" x="12" y="4" width="1" height="1"/>
      <rect class="cls-7" x="12" y="3" width="1" height="1"/>
      <rect class="cls-4" x="12" y="2" width="1" height="1"/>
      <rect class="cls-4" x="12" y="1" width="1" height="1"/>
      <rect class="cls-4" x="12" width="1" height="1"/>
      <rect class="cls-1" x="11" y="12" width="1" height="1"/>
      <rect class="cls-1" x="11" y="11" width="1" height="1"/>
      <rect class="cls-1" x="11" y="10" width="1" height="1"/>
      <rect class="cls-7" x="11" y="9" width="1" height="1"/>
      <rect class="cls-7" x="11" y="8" width="1" height="1"/>
      <rect class="cls-2" x="11" y="7" width="1" height="1"/>
      <rect class="cls-2" x="11" y="6" width="1" height="1"/>
      <rect class="cls-7" x="11" y="5" width="1" height="1"/>
      <rect class="cls-7" x="11" y="4" width="1" height="1"/>
      <rect class="cls-1" x="11" y="3" width="1" height="1"/>
      <rect class="cls-1" x="11" y="2" width="1" height="1"/>
      <rect class="cls-1" x="11" y="1" width="1" height="1"/>
      <rect class="cls-5" x="10" y="17" width="1" height="1"/>
      <rect class="cls-5" x="10" y="16" width="1" height="1"/>
      <rect class="cls-5" x="10" y="15" width="1" height="1"/>
      <rect class="cls-5" x="10" y="14" width="1" height="1"/>
      <rect class="cls-3" x="10" y="13" width="1" height="1"/>
      <rect class="cls-3" x="10" y="12" width="1" height="1"/>
      <rect class="cls-3" x="10" y="11" width="1" height="1"/>
      <rect class="cls-3" x="10" y="10" width="1" height="1"/>
      <rect class="cls-3" x="10" y="9" width="1" height="1"/>
      <rect class="cls-2" x="10" y="8" width="1" height="1"/>
      <rect class="cls-2" x="10" y="7" width="1" height="1"/>
      <rect class="cls-2" x="10" y="6" width="1" height="1"/>
      <rect class="cls-6" x="10" y="5" width="1" height="1"/>
      <rect class="cls-3" x="10" y="4" width="1" height="1"/>
      <rect class="cls-3" x="10" y="3" width="1" height="1"/>
      <rect class="cls-3" x="10" y="2" width="1" height="1"/>
      <rect class="cls-3" x="10" y="1" width="1" height="1"/>
      <rect class="cls-3" x="10" width="1" height="1"/>
      <rect class="cls-5" x="9" y="17" width="1" height="1"/>
      <rect class="cls-5" x="9" y="16" width="1" height="1"/>
      <rect class="cls-5" x="9" y="15" width="1" height="1"/>
      <rect class="cls-5" x="9" y="14" width="1" height="1"/>
      <rect class="cls-3" x="9" y="13" width="1" height="1"/>
      <rect class="cls-3" x="9" y="12" width="1" height="1"/>
      <rect class="cls-3" x="9" y="11" width="1" height="1"/>
      <rect class="cls-3" x="9" y="10" width="1" height="1"/>
      <rect class="cls-3" x="9" y="9" width="1" height="1"/>
      <rect class="cls-2" x="9" y="8" width="1" height="1"/>
      <rect class="cls-2" x="9" y="7" width="1" height="1"/>
      <rect class="cls-2" x="9" y="6" width="1" height="1"/>
      <rect class="cls-6" x="9" y="5" width="1" height="1"/>
      <rect class="cls-3" x="9" y="4" width="1" height="1"/>
      <rect class="cls-3" x="9" y="3" width="1" height="1"/>
      <rect class="cls-3" x="9" y="2" width="1" height="1"/>
      <rect class="cls-3" x="9" y="1" width="1" height="1"/>
      <rect class="cls-3" x="9" width="1" height="1"/>
      <rect class="cls-1" x="8" y="12" width="1" height="1"/>
      <rect class="cls-1" x="8" y="11" width="1" height="1"/>
      <rect class="cls-1" x="8" y="10" width="1" height="1"/>
      <rect class="cls-7" x="8" y="9" width="1" height="1"/>
      <rect class="cls-7" x="8" y="8" width="1" height="1"/>
      <rect class="cls-6" x="8" y="7" width="1" height="1"/>
      <rect class="cls-6" x="8" y="6" width="1" height="1"/>
      <rect class="cls-7" x="8" y="5" width="1" height="1"/>
      <rect class="cls-7" x="8" y="4" width="1" height="1"/>
      <rect class="cls-1" x="8" y="3" width="1" height="1"/>
      <rect class="cls-1" x="8" y="2" width="1" height="1"/>
      <rect class="cls-1" x="8" y="1" width="1" height="1"/>
      <rect class="cls-4" x="7" y="13" width="1" height="1"/>
      <rect class="cls-4" x="7" y="12" width="1" height="1"/>
      <rect class="cls-4" x="7" y="11" width="1" height="1"/>
      <rect class="cls-7" x="7" y="10" width="1" height="1"/>
      <rect class="cls-7" x="7" y="9" width="1" height="1"/>
      <rect class="cls-7" x="7" y="8" width="1" height="1"/>
      <rect class="cls-3" x="7" y="7" width="1" height="1"/>
      <rect class="cls-3" x="7" y="6" width="1" height="1"/>
      <rect class="cls-7" x="7" y="5" width="1" height="1"/>
      <rect class="cls-7" x="7" y="4" width="1" height="1"/>
      <rect class="cls-7" x="7" y="3" width="1" height="1"/>
      <rect class="cls-4" x="7" y="2" width="1" height="1"/>
      <rect class="cls-4" x="7" y="1" width="1" height="1"/>
      <rect class="cls-4" x="7" width="1" height="1"/>
      <rect class="cls-7" x="6" y="11" width="1" height="1"/>
      <rect class="cls-7" x="6" y="10" width="1" height="1"/>
      <rect class="cls-7" x="6" y="9" width="1" height="1"/>
      <rect class="cls-1" x="6" y="8" width="1" height="1"/>
      <rect class="cls-3" x="6" y="7" width="1" height="1"/>
      <rect class="cls-3" x="6" y="6" width="1" height="1"/>
      <rect class="cls-1" x="6" y="5" width="1" height="1"/>
      <rect class="cls-7" x="6" y="4" width="1" height="1"/>
      <rect class="cls-7" x="6" y="3" width="1" height="1"/>
      <rect class="cls-7" x="6" y="2" width="1" height="1"/>
      <rect class="cls-7" x="5" y="12" width="1" height="1"/>
      <rect class="cls-7" x="5" y="11" width="1" height="1"/>
      <rect class="cls-7" x="5" y="10" width="1" height="1"/>
      <rect class="cls-4" x="5" y="9" width="1" height="1"/>
      <rect class="cls-1" x="5" y="8" width="1" height="1"/>
      <rect class="cls-3" x="5" y="7" width="1" height="1"/>
      <rect class="cls-3" x="5" y="6" width="1" height="1"/>
      <rect class="cls-1" x="5" y="5" width="1" height="1"/>
      <rect class="cls-4" x="5" y="4" width="1" height="1"/>
      <rect class="cls-7" x="5" y="3" width="1" height="1"/>
      <rect class="cls-7" x="5" y="2" width="1" height="1"/>
      <rect class="cls-7" x="5" y="1" width="1" height="1"/>
      <rect class="cls-7" x="4" y="12" width="1" height="1"/>
      <rect class="cls-7" x="4" y="11" width="1" height="1"/>
      <rect class="cls-4" x="4" y="9" width="1" height="1"/>
      <rect class="cls-1" x="4" y="8" width="1" height="1"/>
      <rect class="cls-3" x="4" y="7" width="1" height="1"/>
      <rect class="cls-3" x="4" y="6" width="1" height="1"/>
      <rect class="cls-1" x="4" y="5" width="1" height="1"/>
      <rect class="cls-4" x="4" y="4" width="1" height="1"/>
      <rect class="cls-7" x="4" y="2" width="1" height="1"/>
      <rect class="cls-7" x="4" y="1" width="1" height="1"/>
      <rect class="cls-4" x="3" y="9" width="1" height="1"/>
      <rect class="cls-3" x="3" y="7" width="1" height="1"/>
      <rect class="cls-3" x="3" y="6" width="1" height="1"/>
      <rect class="cls-4" x="3" y="4" width="1" height="1"/>
    </g>
  </g>
  <rect class="cls-5" x="9" y="18" width="2" height="2"/>
</svg>