<?xml version="1.0" encoding="UTF-8"?>
<svg id="EInfärben" xmlns="http://www.w3.org/2000/svg" version="1.1" viewBox="0 0 20 20">
  <defs>
    <style>
      .cls-1 {
        fill: #f39200;
      }

      .cls-1, .cls-2, .cls-3 {
        stroke-width: 0px;
      }

      .cls-4 {
        fill: none;
        stroke: #ffed00;
        stroke-miterlimit: 10;
      }

      .cls-2 {
        fill: #1d1d1b;
      }

      .cls-3 {
        fill: #ffed00;
      }
    </style>
  </defs>
  <ellipse class="cls-4" cx="9.91" cy="15.92" rx="5.91" ry="3.3"/>
  <ellipse class="cls-4" cx="5.27" cy="9.78" rx="2.27" ry="1.56"/>
  <path class="cls-3" d="M6.56,18.44c3.22,0,3.22-5,0-5s-3.22,5,0,5h0Z"/>
  <path class="cls-3" d="M7.78,14.27c.5.03,1,.07,1.5.13.24.03.48.07.72.12.06.01.13.03.19.04-.04,0-.17-.05.02,0,.12.03.25.07.37.11.8.26,1.87.73,2.05,1.67.05.25.06.52.04.77,0,.04-.03.11-.02.14.02.13.15-.1.2-.16.11-.14-.01,0-.08.04-.08.05-.16.09-.24.14-.24.14-.49.28-.73.41-.05.03-.1.05-.15.08-.23.12-.02.01.03,0-.15.07-.31.13-.46.19-.03.01-.13.03-.16.06.1-.11.25-.07.07-.03-.02,0-.17.06-.21.05.01,0,.37-.06.07-.02-.04,0-.2.04-.21.03,0,0,.26-.01.09,0-.07,0-.14,0-.21,0-.14.01.17.03-.05,0-.07-.01-.14-.02-.21-.03,0,0-.17-.03-.08-.01.05.01-.26-.09-.25-.08-.07-.05-.11-.24-.11-.4.03-.61.05-1.19-.04-1.81s-.25-1.19-.39-1.78c-.03-.11-.06-.22-.06-.34,0-.05.03-.1.03-.17l-.61.31c-.67.26-.83.36-.5.29.07,0,.15-.02.22-.03.06,0,.11-.01.17-.02.06,0,.11-.01.17-.02h-.14c.12-.03.32,0,.45,0,.07,0,.15,0,.22,0,.02,0,.2,0,.06,0-.15,0,.07,0,.11.01.17.02-.11-.04.05,0,.13.04.13.04.24.12.46.32.88.72,1.27,1.12.15.15.31.29.29.52-.02.26-.19.49-.31.66-.13.19-.28.36-.44.52-.14.15-.05.05-.02.02-.05.04-.1.08-.15.12-.03.03-.12.11-.15.12.07,0,.19-.11.26-.13-.04.02,1.06-.25,1.07-.11,0,.04-.05-.02-.07-.04-.07-.1-.18-.17-.26-.27-.12-.15-.2-.35-.25-.54-.13-.46-.09-.9.12-1.33.08-.17.04-.06.02-.04.02-.04.05-.07.08-.1.04-.04.04-.04,0,0-.1.47-1.63.46-1.62.45-.08-.02-.07-.02.02.02l.07.03c-.1-.06.14.14.17.17.04.05.09.13.12.22.09.25.12.49,0,.74-.04.09,0,.03,0,.02-.07.08-.07.09-.02.04.05-.05.1-.08.16-.11l.53-.14c.22-.13.45-.17.69-.12.18.04.21.04.09,0l.05.03c-.08-.06-.15-.14-.17-.17-.02-.03-.03-.07-.04-.11,0,0-.03-.19-.03-.12,0-.01.03-.1.03-.11.02-.06.01-.05-.02.03l-.1.08-.73.33-.79.08c-.13-.01-.26-.03-.22-.22l2.03-.93h-.03c-.64.04-1.51.21-1.92.75s.35.71.74.68h.03c.45-.03.88-.13,1.3-.32.25-.11.67-.31.73-.61.11-.49-.44-.69-.84-.75-.75-.11-1.6.11-2.25.48-.38.21-.79.55-.84,1.02-.04.37.12.73.42.96.47.35,1.11.35,1.67.27.75-.1,1.57-.41,2.1-.98.56-.6.57-1.53,0-2.14-.88-.94-2.64-.53-3.56.12-.67.47-.98,1.25-.95,2.05.03.72.45,1.51,1.12,1.82.6.27,1.36.16,1.97-.02s1.22-.49,1.71-.92c.31-.27.6-.57.84-.91s.51-.75.54-1.18c.04-.47-.24-.78-.56-1.09s-.65-.62-1-.89-.76-.48-1.22-.57c-.49-.1-1.02-.08-1.52-.05s-.97.07-1.45.16c-.68.12-1.77.41-2.03,1.16-.12.33-.02.7.06,1.03.11.46.23.91.31,1.37.08.42.13.85.13,1.27,0,.36-.13.78.01,1.12.17.4.6.55.99.65.54.14,1.08.19,1.64.16,1.21-.07,2.36-.44,3.45-.96.42-.2.83-.43,1.23-.67.46-.27,1.06-.56,1.13-1.15.06-.45.06-.99-.11-1.42s-.48-.74-.83-1.01c-1.42-1.08-3.28-1.28-5-1.39-.68-.04-1.51.09-2.05.55-.15.13-.37.31-.31.54.06.21.36.3.54.31h0Z"/>
  <path class="cls-3" d="M3.41,9.2c-.04.1-.07.22-.1.33,0,.02-.01.04-.01.06s0,.04,0,.06c0,.11,0,.22.02.33,0,.04.02.08.03.12.04.1.09.2.15.3.01.02.03.04.04.06.07.09.16.16.24.24.02.01.03.03.05.04.04.03.07.05.11.07.08.04.16.08.23.14l-.21-.2c.14.14.24.3.41.41.05.03.1.05.15.08.05.03.1.05.15.08.06.02.13.03.19.05.07.02.13.03.19.04,0,0,.28.02.4,0,.26-.01.58-.1.81-.22.13-.06.26-.14.37-.23.04-.04.09-.08.13-.12.05-.04.09-.08.14-.13,0,0,.02-.02.02-.03.06-.09.13-.19.18-.29,0-.01.02-.03.02-.04.03-.06.05-.12.07-.18.07-.22.14-.44.13-.67.02-.15,0-.29-.08-.41-.05-.14-.14-.25-.27-.33-.14-.1-.29-.16-.45-.19-.18-.05-.36-.07-.54-.05l-.39.07c-.25.07-.48.18-.69.33l-.25.24c-.14.16-.22.34-.25.55,0,.12-.01.24-.04.36l.08-.28c-.02.09-.06.17-.1.25l.17-.27s-.03.04-.05.06l.25-.24s-.02.02-.03.03l.32-.2s-.02.01-.04.02l.38-.14h-.01c.13-.02.26-.04.39-.06-.01,0-.03,0-.04,0h.37s-.02,0-.03,0l.34.08s-.02,0-.04-.01l.28.15s-.04-.03-.06-.05l.21.2s-.07-.08-.11-.12c0-.01-.02-.02-.03-.03-.07-.08-.16-.16-.23-.23-.02-.02-.05-.04-.07-.05-.1-.07-.22-.11-.31-.19l.21.2s-.06-.07-.08-.12l.12.26s-.04-.1-.04-.15l.02.28c0-.05,0-.1.02-.16l-.08.28s.01-.03.02-.04c.07-.14.1-.28.07-.42,0-.15-.04-.28-.13-.4-.09-.13-.21-.22-.35-.28-.14-.09-.3-.14-.48-.15h-.37c-.27.01-.53.08-.77.2l-.32.2c-.18.13-.32.3-.42.5h0Z"/>
  <path class="cls-3" d="M4.93,11.5c-.03.25-.07.3-.24.48-.22.24.14-.13-.11.1-.11.11-.23.21-.34.32-.44.45-.61,1.02-.48,1.64.24,1.1,1.2,1.87,2.05,2.5l2.53-1.16c-.28-.07-.54-.1-.82-.12-.14-.01-.06-.03-.05-.02-.08-.11-.1-.25-.14-.37-.16-.58-.41-1.11-.74-1.61-.17-.26-.33-.42-.64-.5-.58-.14-1.22.01-1.76.23-.81.32-1.16.87-1.28,1.69-.09.56-.09,1.16.14,1.7s.62.97,1.06,1.33c.94.79,1.96,1.43,3.15,1.77.67.19,1.35.37,2.03.55,1.04.28,1.99.26,3.02-.11.28-.1,1.25-.59.82-1s-1.44-.1-1.89.07l.8-.14-.13-.02c.09.02-.21-.05-.2-.04-.22-.05-.43-.12-.65-.18-.41-.11-.82-.22-1.24-.34-.84-.23-1.55-.54-2.25-1.06-.57-.42-1.27-.88-1.58-1.55-.15-.34-.23-.72-.21-1.1,0-.2.04-.4.08-.59.02-.11.05-.22.09-.33.04-.13.14-.22-.06-.05l-.6.32.08-.03-1.45.23c-.21-.1-.25-.09-.14.02.05.07.09.14.14.21.1.16.18.33.26.5.14.31.23.64.33.96s.31.57.64.71c.18.07.38.1.58.12.05,0,.4.03.3,0,.63.15,1.29.03,1.87-.24.22-.1,1.09-.59.65-.92-.77-.58-1.65-1.22-1.86-2.22-.05-.23-.07-.51.05-.71.03-.06.11-.13.16-.19.03-.04.07-.07.11-.11-.06.05-.06.05,0,0,.35-.34.78-.68.84-1.2.07-.58-.84-.52-1.21-.46s-.76.17-1.1.36c-.19.1-.54.3-.57.53h0Z"/>
  <path class="cls-3" d="M1.84,10.5c.64,0,1.53-.13,2.05-.55.37-.3.47-.64-.17-.64s-1.53.13-2.05.55c-.37.3-.47.64.17.64h0Z"/>
  <path class="cls-3" d="M12.49,15.66c.59.05,1.18.03,1.76-.11.69-.17,1.24-.55,1.78-.98.65-.53,1.22-1.16,1.69-1.85l-2.81.09c-.01.22-.06.43-.14.63l.09-.23c-.11.26-.26.49-.44.71l.18-.22c-.27.32-.58.59-.9.86-.14.11-.38.47-.27.68s.17.31.37.42c.26.14.56.16.85.15.64-.02,1.22-.26,1.72-.66.34-.28.64-.64.81-1.05l-2.81.09c0,.22-.06.43-.14.64l.09-.23c-.14.32-.32.64-.53.92l.18-.22s-.06.07-.09.1c-.05.04-.02.03.07-.05.06-.05.12-.1.2-.13.06-.03.54-.18.31-.13.04,0,.42-.07.18-.04-.1.01-.19.02-.29.03-.19.02.16,0,.18,0-.21,0,.31.08.11.01l.27.1-.04-.02.2.15c-.14-.12-.25-.29-.36-.43-.12-.15-.25-.3-.34-.47l.11.2c-.02-.05-.04-.09-.04-.15v.23c0-.06.02-.1.04-.16l-.09.23s.04-.07.06-.1l-.18.22s.08-.09.12-.13c.1-.1.18-.09-.08.05.02-.01.15-.08.15-.1,0,.02-.37.19-.14.08.15-.07-.44.14-.17.06.04-.01.09-.02.13-.04.11-.03.21-.05.32-.09.48-.15.96-.36,1.33-.71.2-.19.34-.43.51-.64l-.18.22s.06-.06.08-.09c.06-.08-.28.2-.13.1l-2.37-.33s-.02.06-.03.09l.09-.23c-.04.07-.08.14-.13.2l.18-.22s-.06.06-.08.09c-.1.1.29-.19.13-.1-.06.03-.21.12.03-.01s.08-.05.03-.02c-.17.08.25-.08.23-.08-.04,0-.08.02-.12.03-.16.05.43-.06.22-.04-.05,0-.11.01-.16.02-.54.05-1.06.06-1.6.2-.33.09-.71.26-.96.51-.15.15-.36.44-.27.68.22.62,1.18.54,1.66.41.04-.01.08-.02.13-.03-.29.05-.35.06-.2.04.07,0,.13-.02.2-.02.15-.01.31-.02.46-.03.36-.02.73-.07,1.08-.18.86-.26,1.72-.74,2.02-1.64.04-.13-.03-.33-.11-.43-.15-.18-.41-.24-.63-.28-.56-.08-1.15.08-1.63.37-.39.24-.61.58-.88.93l.18-.22s-.08.07-.1.11c0,.02.25-.19.15-.12-.12.08.25-.13.21-.11-.18.09.42-.13.15-.05-.06.02-.12.03-.19.05-.45.11-.88.28-1.28.52-.34.2-.71.51-.92.85-.13.21-.18.42-.15.67.02.18.14.35.24.49.16.22.33.43.5.64.35.43.91.49,1.42.47.44-.01.88-.05,1.3-.18.63-.19,1.15-.51,1.55-1.03.17-.22.31-.48.44-.73.16-.32.3-.67.31-1.04,0-.26-.07-.45-.31-.58s-.51-.15-.78-.14c-.32.01-.66.07-.95.21-.27.13-.65.31-.77.6-.08.18-.17.35-.29.5l.18-.22c-.06.07-.11.13-.18.19-.03.03-.06.05-.09.08-.05.04-.03.03.07-.05.44-.37.99-.5,1.66-.37l.27.1h-.03c.07.04.13.09.2.14l-.02-.02.11.2-.02-.03-.27.68c.8-.68,1.69-1.54,1.76-2.65.02-.25-.07-.46-.31-.58s-.51-.15-.78-.14c-.63.02-1.35.27-1.72.81-.13.19-.27.37-.41.54l.18-.22c-.35.42-.73.78-1.15,1.12.34-.29,0-.02-.09.05-.12.07-.07.04.16-.08-.1.04-.07.04.08-.02.15-.05.18-.06.07-.03-.15.04-.08.02.22-.04-.06,0-.12,0-.18.02.26,0,.33,0,.22,0-.03,0-.06,0-.09,0-.14,0-.29-.01-.43-.03-.37-.03-.81.07-1.14.22-.26.11-.63.33-.77.6-.11.21-.17.46.02.66.21.21.51.28.79.3h0Z"/>
  <path class="cls-3" d="M11.77,14.53c.64,0,1.53-.15,2.05-.55.38-.29.47-.57-.15-.57s-1.53.15-2.05.55c-.38.29-.47.57.15.57h0Z"/>
  <path class="cls-3" d="M17.54,11.01c-.2.19-.41.39-.58.61s-.3.44-.5.63c-.32.29-.76.47-.94.88-.02.04,0,.16,0,.18,0,.15,0,.29,0,.44s0,.29,0,.44c0,.05.02.14,0,.18.18-.41.63-.59.94-.88.19-.18.33-.41.49-.61.18-.23.39-.43.59-.63.01-.01,0-.19,0-.18,0-.15,0-.29,0-.44s0-.29,0-.44c0-.03-.02-.17,0-.18h0Z"/>
  <path class="cls-3" d="M1.52,10.25c.73.04,1.43-.26,1.9-.83.09-.1-.03-.2-.12-.22-.14-.04-.33,0-.45.09-.45.34-.95.52-1.52.55-.19,0-.64.32-.26.42.79.22,1.58.45,2.37.67.15.04.36-.01.48-.11.09-.07.16-.2.03-.28-.76-.41-1.57-.68-2.43-.81l-.36.43c.45.03.92-.02,1.32-.23.18-.1.34-.23.47-.39.08-.1.23-.37.32-.4l-.35-.27c-.36.4-.8.7-1.32.85l.35.27c.63-.7,1.32-1.49,2.28-1.69l-.42-.16c-.07.35-.35.59-.48.92s-.12.68,0,1.01c.1.27.67.09.73-.14.1-.39.1-.78.04-1.18-.03-.16-.08-.35-.02-.51s.26-.21.42-.24c.66-.14,1.35.14,1.8.62l.47-.36c-.69-.03-1.35-.2-2.01-.38v.33c.18-.11.53.17.68.27.21.14.88-.16.57-.37-.52-.35-1.13-.53-1.7-.14-.15.1-.2.27,0,.33.71.2,1.43.38,2.17.41.12,0,.67-.16.47-.36-.66-.69-1.65-.93-2.57-.72-.42.1-.99.31-1.06.79-.04.22.03.45.06.67.04.32.02.63-.06.94l.73-.14c-.12-.33-.13-.68.04-.99.15-.28.37-.5.43-.82.04-.21-.31-.18-.42-.16-1.16.24-2,1.09-2.76,1.94-.22.24.16.32.35.27.69-.2,1.32-.57,1.8-1.1.22-.24-.16-.33-.35-.27-.38.12-.57.35-.81.65s-.54.35-.93.32c-.15-.01-.36.05-.45.18-.07.1-.05.23.1.25.81.12,1.57.37,2.29.76l.5-.39c-.79-.22-1.58-.45-2.37-.67l-.26.42c.74-.03,1.47-.29,2.07-.74l-.57-.14c-.24.29-.57.44-.94.42-.16,0-.4.05-.48.2s.07.23.2.23h0Z"/>
  <path class="cls-1" d="M9.33,14.89c1.44.16,2.81.14,4.19-.36.62-.22,1.23-.5,1.82-.8.53-.27,1.01-.58,1.36-1.05.11-.14-.09-.23-.2-.24-.17-.01-.37.06-.48.2-.32.43-.8.67-1.27.9-.5.24-1.01.48-1.54.66-1.19.41-2.38.38-3.61.24-.3-.03-.76.39-.27.44h0Z"/>
  <path class="cls-1" d="M9.23,17.17c1.28-.07,2.57-.15,3.8-.56.62-.21,1.21-.49,1.81-.76.5-.22,1.09-.41,1.41-.88.17-.25-.54-.18-.67,0-.28.41-.88.56-1.31.75-.51.22-1.01.47-1.54.64-1.03.33-2.13.38-3.2.44-.14,0-.41.05-.48.19s.06.19.19.19h0Z"/>
  <path class="cls-2" d="M4.33,9.03v-.15s-.04-.04-.07-.04c-.05,0-.09-.01-.14,0-.09,0-.18.03-.26.05-.08.02-.15.05-.22.1-.05.03-.1.07-.12.12,0,.01,0,.02,0,.03,0,.02,0,.04,0,.06,0,.03.03.06.05.08l.04.02s.07,0,.1,0c.08,0,.15-.01.23-.03.06-.02.12-.04.18-.06.03-.01.07-.03.09-.06.02-.01.04-.03.05-.06.03-.06.05-.13.05-.19,0-.06,0-.12-.03-.17-.02-.04-.06-.04-.1-.05-.07,0-.13,0-.2,0s-.13.03-.19.05c-.04.01-.08.03-.12.05-.03.01-.06.03-.08.06-.03.04-.06.08-.08.12-.02.04-.02.09-.03.13,0,.07,0,.14.04.2,0,.02.02.03.04.04.03.01.05.02.08.02.04,0,.08,0,.12,0,.05,0,.1-.01.14-.03.08-.02.17-.05.25-.1l.05-.04s.04-.04.03-.07c-.04-.07-.05-.14-.04-.22v.03c0-.06.03-.11.06-.16l-.03.04s0,0,0,0l-.69.12c.03.06.04.13.03.2v-.03s-.02.09-.04.12l.7-.19s0,0-.01-.01l.02.03s-.02-.05-.02-.08v.03s0-.04.02-.06l-.03.04s.01-.01.02-.02l-.05.04s0,0,0,0l-.07.04s0,0,0,0l-.08.03s0,0,0,0l-.1.03s0,0,0,0l-.1.02s0,0,0,0h-.09s0,.01,0,.01l-.21-.05v.15s.03.03.05.04c.03.01.05.02.08.02.04,0,.08,0,.12,0,.05,0,.1-.01.14-.03.08-.02.17-.05.25-.1.04-.03.09-.06.08-.11h0Z"/>
</svg>