<?xml version="1.0" encoding="UTF-8"?>
<svg id="EInfärben" xmlns="http://www.w3.org/2000/svg" version="1.1" viewBox="0 0 20 20">
  <defs>
    <style>
      .cls-1 {
        fill: #575756;
      }

      .cls-1, .cls-2, .cls-3, .cls-4 {
        stroke-width: 0px;
      }

      .cls-2 {
        fill: #9d9d9c;
      }

      .cls-3 {
        fill: #706f6f;
      }

      .cls-4 {
        fill: #878787;
      }
    </style>
  </defs>
  <g id="Einfärben-2" data-name="Einfärben">
    <g>
      <rect class="cls-2" x="16" y="5" width="1" height="1"/>
      <rect class="cls-4" x="18" y="17" width="1" height="1"/>
      <rect class="cls-4" x="18" y="16" width="1" height="1"/>
      <rect class="cls-4" x="17" y="12" width="1" height="1"/>
      <rect class="cls-2" x="16" y="7" width="1" height="1"/>
      <rect class="cls-4" x="17" y="13" width="1" height="1"/>
      <rect class="cls-2" x="16" y="6" width="1" height="1"/>
      <rect class="cls-4" x="15" y="11" width="1" height="1"/>
      <rect class="cls-4" x="14" y="16" width="1" height="1"/>
      <rect class="cls-1" x="18" y="19" width="1" height="1"/>
      <rect class="cls-1" x="18" y="18" width="1" height="1"/>
      <rect class="cls-1" x="17" y="19" width="1" height="1"/>
      <rect class="cls-1" x="17" y="18" width="1" height="1"/>
      <rect class="cls-1" x="17" y="17" width="1" height="1"/>
      <rect class="cls-1" x="17" y="16" width="1" height="1"/>
      <rect class="cls-1" x="17" y="15" width="1" height="1"/>
      <rect class="cls-3" x="17" y="14" width="1" height="1"/>
      <rect class="cls-1" x="16" y="19" width="1" height="1"/>
      <rect class="cls-1" x="16" y="18" width="1" height="1"/>
      <rect class="cls-1" x="16" y="17" width="1" height="1"/>
      <rect class="cls-1" x="16" y="16" width="1" height="1"/>
      <rect class="cls-1" x="16" y="15" width="1" height="1"/>
      <rect class="cls-1" x="16" y="14" width="1" height="1"/>
      <rect class="cls-1" x="16" y="13" width="1" height="1"/>
      <rect class="cls-1" x="16" y="12" width="1" height="1"/>
      <rect class="cls-3" x="16" y="11" width="1" height="1"/>
      <rect class="cls-3" x="16" y="10" width="1" height="1"/>
      <rect class="cls-4" x="16" y="9" width="1" height="1"/>
      <rect class="cls-4" x="16" y="8" width="1" height="1"/>
      <rect class="cls-1" x="15" y="19" width="1" height="1"/>
      <rect class="cls-1" x="15" y="18" width="1" height="1"/>
      <rect class="cls-1" x="15" y="17" width="1" height="1"/>
      <rect class="cls-1" x="15" y="16" width="1" height="1"/>
      <rect class="cls-1" x="15" y="15" width="1" height="1"/>
      <rect class="cls-1" x="15" y="14" width="1" height="1"/>
      <rect class="cls-1" x="15" y="13" width="1" height="1"/>
      <rect class="cls-3" x="15" y="12" width="1" height="1"/>
      <rect class="cls-1" x="14" y="19" width="1" height="1"/>
      <rect class="cls-1" x="14" y="18" width="1" height="1"/>
      <rect class="cls-1" x="14" y="17" width="1" height="1"/>
    </g>
  </g>
</svg>