<?xml version="1.0" encoding="UTF-8"?>
<svg id="EInfärben" xmlns="http://www.w3.org/2000/svg" version="1.1" viewBox="0 0 20 20">
  <defs>
    <style>
      .cls-1 {
        fill: #978f7b;
      }

      .cls-1, .cls-2, .cls-3, .cls-4, .cls-5, .cls-6, .cls-7, .cls-8, .cls-9, .cls-10, .cls-11, .cls-12, .cls-13, .cls-14, .cls-15, .cls-16, .cls-17, .cls-18 {
        stroke-width: 0px;
      }

      .cls-2 {
        fill: #ded3a9;
      }

      .cls-3 {
        fill: #797a74;
      }

      .cls-4 {
        fill: #1f274d;
      }

      .cls-5 {
        fill: #241f4a;
      }

      .cls-6 {
        fill: #556f72;
      }

      .cls-7 {
        fill: #005b6c;
      }

      .cls-8 {
        fill: #003958;
      }

      .cls-9 {
        fill: #b1b691;
      }

      .cls-10 {
        fill: #897f74;
      }

      .cls-11 {
        fill: #153052;
      }

      .cls-12 {
        fill: #a6a081;
      }

      .cls-13 {
        fill: #cbc19b;
      }

      .cls-14 {
        fill: #f4ef96;
      }

      .cls-15 {
        fill: #004a62;
      }

      .cls-16 {
        fill: #00425d;
      }

      .cls-17 {
        fill: #005367;
      }

      .cls-18 {
        fill: #1c646f;
      }
    </style>
  </defs>
  <g id="Einfärben-2" data-name="Einfärben">
    <g>
      <rect class="cls-2" x="18" y="15" width="1" height="1"/>
      <rect class="cls-2" x="16" y="15" width="1" height="1"/>
      <rect class="cls-2" x="17" y="15" width="1" height="1"/>
      <rect class="cls-2" x="15" y="15" width="1" height="1"/>
      <rect class="cls-2" x="14" y="15" width="1" height="1"/>
      <rect class="cls-2" x="13" y="15" width="1" height="1"/>
      <rect class="cls-2" x="12" y="15" width="1" height="1"/>
      <rect class="cls-2" x="11" y="15" width="1" height="1"/>
      <rect class="cls-2" x="10" y="15" width="1" height="1"/>
      <rect class="cls-2" x="8" y="15" width="1" height="1"/>
      <rect class="cls-2" x="9" y="15" width="1" height="1"/>
      <rect class="cls-2" x="7" y="15" width="1" height="1"/>
      <rect class="cls-2" x="5" y="15" width="1" height="1"/>
      <rect class="cls-2" x="6" y="15" width="1" height="1"/>
      <rect class="cls-2" x="4" y="15" width="1" height="1"/>
      <rect class="cls-2" x="3" y="15" width="1" height="1"/>
      <rect class="cls-2" y="15" width="1" height="1"/>
      <rect class="cls-2" x="2" y="15" width="1" height="1"/>
      <rect class="cls-2" x="1" y="15" width="1" height="1"/>
      <rect class="cls-2" x="19" y="15" width="1" height="1"/>
      <rect class="cls-13" x="18" y="14" width="1" height="1"/>
      <rect class="cls-13" x="15" y="14" width="1" height="1"/>
      <rect class="cls-13" x="16" y="14" width="1" height="1"/>
      <rect class="cls-13" x="17" y="14" width="1" height="1"/>
      <rect class="cls-13" x="13" y="14" width="1" height="1"/>
      <rect class="cls-13" x="11" y="14" width="1" height="1"/>
      <rect class="cls-13" x="14" y="14" width="1" height="1"/>
      <rect class="cls-13" x="12" y="14" width="1" height="1"/>
      <rect class="cls-13" x="8" y="14" width="1" height="1"/>
      <rect class="cls-13" x="10" y="14" width="1" height="1"/>
      <rect class="cls-13" x="9" y="14" width="1" height="1"/>
      <rect class="cls-13" x="5" y="14" width="1" height="1"/>
      <rect class="cls-13" x="6" y="14" width="1" height="1"/>
      <rect class="cls-13" x="7" y="14" width="1" height="1"/>
      <rect class="cls-13" x="4" y="14" width="1" height="1"/>
      <rect class="cls-13" x="3" y="14" width="1" height="1"/>
      <rect class="cls-13" y="14" width="1" height="1"/>
      <rect class="cls-13" x="1" y="14" width="1" height="1"/>
      <rect class="cls-13" x="2" y="14" width="1" height="1"/>
      <rect class="cls-13" x="19" y="14" width="1" height="1"/>
      <rect class="cls-12" x="18" y="13" width="1" height="1"/>
      <rect class="cls-12" x="16" y="13" width="1" height="1"/>
      <rect class="cls-12" x="15" y="13" width="1" height="1"/>
      <rect class="cls-12" x="17" y="13" width="1" height="1"/>
      <rect class="cls-12" x="13" y="13" width="1" height="1"/>
      <rect class="cls-12" x="12" y="13" width="1" height="1"/>
      <rect class="cls-12" x="14" y="13" width="1" height="1"/>
      <rect class="cls-12" x="11" y="13" width="1" height="1"/>
      <rect class="cls-12" x="9" y="13" width="1" height="1"/>
      <rect class="cls-12" x="8" y="13" width="1" height="1"/>
      <rect class="cls-12" x="10" y="13" width="1" height="1"/>
      <rect class="cls-12" x="7" y="13" width="1" height="1"/>
      <rect class="cls-12" x="6" y="13" width="1" height="1"/>
      <rect class="cls-12" x="5" y="13" width="1" height="1"/>
      <rect class="cls-12" x="3" y="13" width="1" height="1"/>
      <rect class="cls-12" x="4" y="13" width="1" height="1"/>
      <rect class="cls-12" x="2" y="13" width="1" height="1"/>
      <rect class="cls-12" x="1" y="13" width="1" height="1"/>
      <rect class="cls-12" y="13" width="1" height="1"/>
      <rect class="cls-12" x="19" y="13" width="1" height="1"/>
      <rect class="cls-1" x="18" y="12" width="1" height="1"/>
      <rect class="cls-1" x="16" y="12" width="1" height="1"/>
      <rect class="cls-1" x="15" y="12" width="1" height="1"/>
      <rect class="cls-1" x="17" y="12" width="1" height="1"/>
      <rect class="cls-1" x="14" y="12" width="1" height="1"/>
      <rect class="cls-1" x="12" y="12" width="1" height="1"/>
      <rect class="cls-1" x="13" y="12" width="1" height="1"/>
      <rect class="cls-1" x="11" y="12" width="1" height="1"/>
      <rect class="cls-1" x="8" y="12" width="1" height="1"/>
      <rect class="cls-1" x="9" y="12" width="1" height="1"/>
      <rect class="cls-1" x="10" y="12" width="1" height="1"/>
      <rect class="cls-1" x="5" y="12" width="1" height="1"/>
      <rect class="cls-1" x="7" y="12" width="1" height="1"/>
      <rect class="cls-1" x="6" y="12" width="1" height="1"/>
      <rect class="cls-1" x="3" y="12" width="1" height="1"/>
      <rect class="cls-1" x="4" y="12" width="1" height="1"/>
      <rect class="cls-1" x="2" y="12" width="1" height="1"/>
      <rect class="cls-1" y="12" width="1" height="1"/>
      <rect class="cls-1" x="1" y="12" width="1" height="1"/>
      <rect class="cls-1" x="19" y="12" width="1" height="1"/>
      <rect class="cls-10" x="18" y="11" width="1" height="1"/>
      <rect class="cls-10" x="15" y="11" width="1" height="1"/>
      <rect class="cls-10" x="16" y="11" width="1" height="1"/>
      <rect class="cls-10" x="17" y="11" width="1" height="1"/>
      <rect class="cls-10" x="14" y="11" width="1" height="1"/>
      <rect class="cls-10" x="13" y="11" width="1" height="1"/>
      <rect class="cls-10" x="12" y="11" width="1" height="1"/>
      <rect class="cls-10" x="11" y="11" width="1" height="1"/>
      <rect class="cls-10" x="10" y="11" width="1" height="1"/>
      <rect class="cls-10" x="8" y="11" width="1" height="1"/>
      <rect class="cls-10" x="9" y="11" width="1" height="1"/>
      <rect class="cls-10" x="5" y="11" width="1" height="1"/>
      <rect class="cls-10" x="7" y="11" width="1" height="1"/>
      <rect class="cls-10" x="6" y="11" width="1" height="1"/>
      <rect class="cls-10" x="3" y="11" width="1" height="1"/>
      <rect class="cls-10" x="4" y="11" width="1" height="1"/>
      <rect class="cls-10" y="11" width="1" height="1"/>
      <rect class="cls-10" x="1" y="11" width="1" height="1"/>
      <rect class="cls-10" x="2" y="11" width="1" height="1"/>
      <rect class="cls-10" x="19" y="11" width="1" height="1"/>
      <rect class="cls-3" x="18" y="10" width="1" height="1"/>
      <rect class="cls-3" x="16" y="10" width="1" height="1"/>
      <rect class="cls-3" x="15" y="10" width="1" height="1"/>
      <rect class="cls-3" x="17" y="10" width="1" height="1"/>
      <rect class="cls-3" x="13" y="10" width="1" height="1"/>
      <rect class="cls-3" x="12" y="10" width="1" height="1"/>
      <rect class="cls-3" x="14" y="10" width="1" height="1"/>
      <rect class="cls-3" x="10" y="10" width="1" height="1"/>
      <rect class="cls-3" x="8" y="10" width="1" height="1"/>
      <rect class="cls-3" x="11" y="10" width="1" height="1"/>
      <rect class="cls-3" x="9" y="10" width="1" height="1"/>
      <rect class="cls-3" x="5" y="10" width="1" height="1"/>
      <rect class="cls-3" x="6" y="10" width="1" height="1"/>
      <rect class="cls-3" x="7" y="10" width="1" height="1"/>
      <rect class="cls-3" x="4" y="10" width="1" height="1"/>
      <rect class="cls-3" x="3" y="10" width="1" height="1"/>
      <rect class="cls-3" y="10" width="1" height="1"/>
      <rect class="cls-3" x="2" y="10" width="1" height="1"/>
      <rect class="cls-3" x="1" y="10" width="1" height="1"/>
      <rect class="cls-3" x="19" y="10" width="1" height="1"/>
      <rect class="cls-6" x="18" y="9" width="1" height="1"/>
      <rect class="cls-6" x="16" y="9" width="1" height="1"/>
      <rect class="cls-6" x="15" y="9" width="1" height="1"/>
      <rect class="cls-6" x="17" y="9" width="1" height="1"/>
      <rect class="cls-6" x="13" y="9" width="1" height="1"/>
      <rect class="cls-6" x="14" y="9" width="1" height="1"/>
      <rect class="cls-6" x="12" y="9" width="1" height="1"/>
      <rect class="cls-6" x="9" y="9" width="1" height="1"/>
      <rect class="cls-6" x="10" y="9" width="1" height="1"/>
      <rect class="cls-6" x="8" y="9" width="1" height="1"/>
      <rect class="cls-6" x="11" y="9" width="1" height="1"/>
      <rect class="cls-6" x="7" y="9" width="1" height="1"/>
      <rect class="cls-6" x="6" y="9" width="1" height="1"/>
      <rect class="cls-6" x="5" y="9" width="1" height="1"/>
      <rect class="cls-6" x="3" y="9" width="1" height="1"/>
      <rect class="cls-6" x="4" y="9" width="1" height="1"/>
      <rect class="cls-6" x="2" y="9" width="1" height="1"/>
      <rect class="cls-6" x="1" y="9" width="1" height="1"/>
      <rect class="cls-6" y="9" width="1" height="1"/>
      <rect class="cls-6" x="19" y="9" width="1" height="1"/>
      <rect class="cls-18" x="18" y="8" width="1" height="1"/>
      <rect class="cls-18" x="15" y="8" width="1" height="1"/>
      <rect class="cls-18" x="16" y="8" width="1" height="1"/>
      <rect class="cls-18" x="17" y="8" width="1" height="1"/>
      <rect class="cls-18" x="13" y="8" width="1" height="1"/>
      <rect class="cls-18" x="14" y="8" width="1" height="1"/>
      <rect class="cls-18" x="12" y="8" width="1" height="1"/>
      <rect class="cls-18" x="8" y="8" width="1" height="1"/>
      <rect class="cls-18" x="9" y="8" width="1" height="1"/>
      <rect class="cls-18" x="11" y="8" width="1" height="1"/>
      <rect class="cls-18" x="10" y="8" width="1" height="1"/>
      <rect class="cls-18" x="7" y="8" width="1" height="1"/>
      <rect class="cls-18" x="5" y="8" width="1" height="1"/>
      <rect class="cls-18" x="6" y="8" width="1" height="1"/>
      <rect class="cls-18" x="4" y="8" width="1" height="1"/>
      <rect class="cls-18" x="3" y="8" width="1" height="1"/>
      <rect class="cls-18" x="2" y="8" width="1" height="1"/>
      <rect class="cls-18" y="8" width="1" height="1"/>
      <rect class="cls-18" x="1" y="8" width="1" height="1"/>
      <rect class="cls-18" x="19" y="8" width="1" height="1"/>
      <rect class="cls-7" x="18" y="7" width="1" height="1"/>
      <rect class="cls-7" x="17" y="7" width="1" height="1"/>
      <rect class="cls-7" x="16" y="7" width="1" height="1"/>
      <rect class="cls-7" x="15" y="7" width="1" height="1"/>
      <rect class="cls-7" x="12" y="7" width="1" height="1"/>
      <rect class="cls-7" x="13" y="7" width="1" height="1"/>
      <rect class="cls-7" x="14" y="7" width="1" height="1"/>
      <rect class="cls-7" x="10" y="7" width="1" height="1"/>
      <rect class="cls-7" x="9" y="7" width="1" height="1"/>
      <rect class="cls-7" x="8" y="7" width="1" height="1"/>
      <rect class="cls-7" x="11" y="7" width="1" height="1"/>
      <rect class="cls-7" x="7" y="7" width="1" height="1"/>
      <rect class="cls-7" x="5" y="7" width="1" height="1"/>
      <rect class="cls-7" x="6" y="7" width="1" height="1"/>
      <rect class="cls-7" x="3" y="7" width="1" height="1"/>
      <rect class="cls-7" x="4" y="7" width="1" height="1"/>
      <rect class="cls-7" x="2" y="7" width="1" height="1"/>
      <rect class="cls-7" y="7" width="1" height="1"/>
      <rect class="cls-7" x="1" y="7" width="1" height="1"/>
      <rect class="cls-7" x="19" y="7" width="1" height="1"/>
      <rect class="cls-17" x="18" y="6" width="1" height="1"/>
      <rect class="cls-17" x="16" y="6" width="1" height="1"/>
      <rect class="cls-17" x="15" y="6" width="1" height="1"/>
      <rect class="cls-17" x="17" y="6" width="1" height="1"/>
      <rect class="cls-17" x="14" y="6" width="1" height="1"/>
      <rect class="cls-17" x="13" y="6" width="1" height="1"/>
      <rect class="cls-17" x="12" y="6" width="1" height="1"/>
      <rect class="cls-17" x="10" y="6" width="1" height="1"/>
      <rect class="cls-17" x="9" y="6" width="1" height="1"/>
      <rect class="cls-17" x="11" y="6" width="1" height="1"/>
      <rect class="cls-17" x="6" y="6" width="1" height="1"/>
      <rect class="cls-17" x="5" y="6" width="1" height="1"/>
      <rect class="cls-17" x="7" y="6" width="1" height="1"/>
      <rect class="cls-17" x="8" y="6" width="1" height="1"/>
      <rect class="cls-17" x="3" y="6" width="1" height="1"/>
      <rect class="cls-17" x="4" y="6" width="1" height="1"/>
      <rect class="cls-17" x="2" y="6" width="1" height="1"/>
      <rect class="cls-17" y="6" width="1" height="1"/>
      <rect class="cls-17" x="1" y="6" width="1" height="1"/>
      <rect class="cls-17" x="19" y="6" width="1" height="1"/>
      <rect class="cls-15" x="18" y="5" width="1" height="1"/>
      <rect class="cls-15" x="17" y="5" width="1" height="1"/>
      <rect class="cls-15" x="16" y="5" width="1" height="1"/>
      <rect class="cls-15" x="15" y="5" width="1" height="1"/>
      <rect class="cls-15" x="12" y="5" width="1" height="1"/>
      <rect class="cls-15" x="13" y="5" width="1" height="1"/>
      <rect class="cls-15" x="14" y="5" width="1" height="1"/>
      <rect class="cls-15" x="9" y="5" width="1" height="1"/>
      <rect class="cls-15" x="11" y="5" width="1" height="1"/>
      <rect class="cls-15" x="10" y="5" width="1" height="1"/>
      <rect class="cls-15" x="6" y="5" width="1" height="1"/>
      <rect class="cls-15" x="5" y="5" width="1" height="1"/>
      <rect class="cls-15" x="7" y="5" width="1" height="1"/>
      <rect class="cls-15" x="8" y="5" width="1" height="1"/>
      <rect class="cls-15" x="4" y="5" width="1" height="1"/>
      <rect class="cls-15" x="3" y="5" width="1" height="1"/>
      <rect class="cls-15" x="1" y="5" width="1" height="1"/>
      <rect class="cls-15" y="5" width="1" height="1"/>
      <rect class="cls-15" x="2" y="5" width="1" height="1"/>
      <rect class="cls-15" x="19" y="5" width="1" height="1"/>
      <rect class="cls-16" x="18" y="4" width="1" height="1"/>
      <rect class="cls-16" x="15" y="4" width="1" height="1"/>
      <rect class="cls-16" x="16" y="4" width="1" height="1"/>
      <rect class="cls-16" x="17" y="4" width="1" height="1"/>
      <rect class="cls-16" x="13" y="4" width="1" height="1"/>
      <rect class="cls-16" x="12" y="4" width="1" height="1"/>
      <rect class="cls-16" x="14" y="4" width="1" height="1"/>
      <rect class="cls-16" x="9" y="4" width="1" height="1"/>
      <rect class="cls-16" x="11" y="4" width="1" height="1"/>
      <rect class="cls-16" x="10" y="4" width="1" height="1"/>
      <rect class="cls-16" x="5" y="4" width="1" height="1"/>
      <rect class="cls-16" x="6" y="4" width="1" height="1"/>
      <rect class="cls-16" x="7" y="4" width="1" height="1"/>
      <rect class="cls-16" x="8" y="4" width="1" height="1"/>
      <rect class="cls-16" x="4" y="4" width="1" height="1"/>
      <rect class="cls-16" x="3" y="4" width="1" height="1"/>
      <rect class="cls-16" x="2" y="4" width="1" height="1"/>
      <rect class="cls-16" y="4" width="1" height="1"/>
      <rect class="cls-16" x="1" y="4" width="1" height="1"/>
      <rect class="cls-16" x="19" y="4" width="1" height="1"/>
      <rect class="cls-8" x="18" y="3" width="1" height="1"/>
      <rect class="cls-8" x="16" y="3" width="1" height="1"/>
      <rect class="cls-8" x="17" y="3" width="1" height="1"/>
      <rect class="cls-8" x="15" y="3" width="1" height="1"/>
      <rect class="cls-8" x="13" y="3" width="1" height="1"/>
      <rect class="cls-8" x="12" y="3" width="1" height="1"/>
      <rect class="cls-8" x="14" y="3" width="1" height="1"/>
      <rect class="cls-8" x="10" y="3" width="1" height="1"/>
      <rect class="cls-8" x="9" y="3" width="1" height="1"/>
      <rect class="cls-8" x="11" y="3" width="1" height="1"/>
      <rect class="cls-8" x="6" y="3" width="1" height="1"/>
      <rect class="cls-8" x="8" y="3" width="1" height="1"/>
      <rect class="cls-8" x="5" y="3" width="1" height="1"/>
      <rect class="cls-8" x="7" y="3" width="1" height="1"/>
      <rect class="cls-8" x="3" y="3" width="1" height="1"/>
      <rect class="cls-8" x="4" y="3" width="1" height="1"/>
      <rect class="cls-8" x="1" y="3" width="1" height="1"/>
      <rect class="cls-8" x="2" y="3" width="1" height="1"/>
      <rect class="cls-8" y="3" width="1" height="1"/>
      <rect class="cls-8" x="19" y="3" width="1" height="1"/>
      <rect class="cls-11" x="18" y="2" width="1" height="1"/>
      <rect class="cls-11" x="15" y="2" width="1" height="1"/>
      <rect class="cls-11" x="17" y="2" width="1" height="1"/>
      <rect class="cls-11" x="16" y="2" width="1" height="1"/>
      <rect class="cls-11" x="14" y="2" width="1" height="1"/>
      <rect class="cls-11" x="13" y="2" width="1" height="1"/>
      <rect class="cls-11" x="12" y="2" width="1" height="1"/>
      <rect class="cls-11" x="10" y="2" width="1" height="1"/>
      <rect class="cls-11" x="11" y="2" width="1" height="1"/>
      <rect class="cls-11" x="9" y="2" width="1" height="1"/>
      <rect class="cls-11" x="8" y="2" width="1" height="1"/>
      <rect class="cls-11" x="7" y="2" width="1" height="1"/>
      <rect class="cls-11" x="6" y="2" width="1" height="1"/>
      <rect class="cls-11" x="4" y="2" width="1" height="1"/>
      <rect class="cls-11" x="3" y="2" width="1" height="1"/>
      <rect class="cls-11" x="5" y="2" width="1" height="1"/>
      <rect class="cls-11" x="2" y="2" width="1" height="1"/>
      <rect class="cls-11" x="1" y="2" width="1" height="1"/>
      <rect class="cls-11" y="2" width="1" height="1"/>
      <rect class="cls-11" x="19" y="2" width="1" height="1"/>
      <rect class="cls-4" x="18" y="1" width="1" height="1"/>
      <rect class="cls-4" x="16" y="1" width="1" height="1"/>
      <rect class="cls-4" x="17" y="1" width="1" height="1"/>
      <rect class="cls-4" x="15" y="1" width="1" height="1"/>
      <rect class="cls-4" x="14" y="1" width="1" height="1"/>
      <rect class="cls-4" x="13" y="1" width="1" height="1"/>
      <rect class="cls-4" x="12" y="1" width="1" height="1"/>
      <rect class="cls-4" x="11" y="1" width="1" height="1"/>
      <rect class="cls-4" x="10" y="1" width="1" height="1"/>
      <rect class="cls-4" x="9" y="1" width="1" height="1"/>
      <rect class="cls-4" x="6" y="1" width="1" height="1"/>
      <rect class="cls-4" x="8" y="1" width="1" height="1"/>
      <rect class="cls-4" x="7" y="1" width="1" height="1"/>
      <rect class="cls-4" x="4" y="1" width="1" height="1"/>
      <rect class="cls-4" x="3" y="1" width="1" height="1"/>
      <rect class="cls-4" x="5" y="1" width="1" height="1"/>
      <rect class="cls-4" x="1" y="1" width="1" height="1"/>
      <rect class="cls-4" x="2" y="1" width="1" height="1"/>
      <rect class="cls-4" y="1" width="1" height="1"/>
      <rect class="cls-4" x="19" y="1" width="1" height="1"/>
      <rect class="cls-5" x="18" width="1" height="1"/>
      <rect class="cls-5" x="16" width="1" height="1"/>
      <rect class="cls-5" x="15" width="1" height="1"/>
      <rect class="cls-5" x="17" width="1" height="1"/>
      <rect class="cls-5" x="12" width="1" height="1"/>
      <rect class="cls-5" x="13" width="1" height="1"/>
      <rect class="cls-5" x="14" width="1" height="1"/>
      <rect class="cls-5" x="11" width="1" height="1"/>
      <rect class="cls-5" x="9" width="1" height="1"/>
      <rect class="cls-5" x="10" width="1" height="1"/>
      <rect class="cls-5" x="8" width="1" height="1"/>
      <rect class="cls-5" x="6" width="1" height="1"/>
      <rect class="cls-5" x="7" width="1" height="1"/>
      <rect class="cls-5" x="4" width="1" height="1"/>
      <rect class="cls-5" x="3" width="1" height="1"/>
      <rect class="cls-5" x="5" width="1" height="1"/>
      <rect class="cls-5" width="1" height="1"/>
      <rect class="cls-5" x="2" width="1" height="1"/>
      <rect class="cls-5" x="1" width="1" height="1"/>
      <rect class="cls-5" x="19" width="1" height="1"/>
    </g>
  </g>
  <ellipse class="cls-14" cx="8.11" cy="7.52" rx="4.64" ry="4.7"/>
  <ellipse class="cls-9" cx="6.2" cy="6.11" rx=".36" ry=".33"/>
  <ellipse class="cls-9" cx="9.77" cy="7.11" rx=".36" ry=".33"/>
  <ellipse class="cls-9" cx="7.23" cy="9.98" rx=".36" ry=".33"/>
</svg>