<?xml version="1.0" encoding="UTF-8"?>
<svg id="EInfärben" xmlns="http://www.w3.org/2000/svg" version="1.1" viewBox="0 0 20 20">
  <defs>
    <style>
      .cls-1 {
        fill: #634e42;
        stroke-width: 0px;
      }
    </style>
  </defs>
  <g id="Einfärben-2" data-name="Einfärben">
    <g>
      <rect class="cls-1" x="9" y="13" width="1" height="1"/>
      <rect class="cls-1" x="9" y="19" width="1" height="1"/>
      <rect class="cls-1" x="9" y="18" width="1" height="1"/>
      <rect class="cls-1" x="18" y="14" width="1" height="1"/>
      <rect class="cls-1" x="16" y="16" width="1" height="1"/>
      <rect class="cls-1" x="15" y="12" width="1" height="1"/>
      <rect class="cls-1" x="16" y="9" width="1" height="1"/>
      <rect class="cls-1" x="17" y="7" width="1" height="1"/>
      <rect class="cls-1" x="17" y="15" width="1" height="1"/>
      <rect class="cls-1" x="16" y="10" width="1" height="1"/>
      <rect class="cls-1" x="18" y="6" width="1" height="1"/>
      <rect class="cls-1" x="15" y="16" width="1" height="1"/>
      <rect class="cls-1" x="16" y="8" width="1" height="1"/>
      <rect class="cls-1" x="16" y="3" width="1" height="1"/>
      <rect class="cls-1" x="15" y="11" width="1" height="1"/>
      <rect class="cls-1" x="12" y="6" width="1" height="1"/>
      <rect class="cls-1" x="13" y="5" width="1" height="1"/>
      <rect class="cls-1" x="12" y="14" width="1" height="1"/>
      <rect class="cls-1" x="12" y="5" width="1" height="1"/>
      <rect class="cls-1" x="15" y="4" width="1" height="1"/>
      <rect class="cls-1" x="14" y="13" width="1" height="1"/>
      <rect class="cls-1" x="13" y="13" width="1" height="1"/>
      <rect class="cls-1" x="13" y="15" width="1" height="1"/>
      <rect class="cls-1" x="12" y="3" width="1" height="1"/>
      <rect class="cls-1" x="12" y="15" width="1" height="1"/>
      <rect class="cls-1" x="14" y="5" width="1" height="1"/>
      <rect class="cls-1" x="12" y="11" width="1" height="1"/>
      <rect class="cls-1" x="12" y="2" width="1" height="1"/>
      <rect class="cls-1" x="12" y="4" width="1" height="1"/>
      <rect class="cls-1" x="13" y="12" width="1" height="1"/>
      <rect class="cls-1" x="14" y="15" width="1" height="1"/>
      <rect class="cls-1" x="12" y="10" width="1" height="1"/>
      <rect class="cls-1" x="9" y="14" width="1" height="1"/>
      <rect class="cls-1" x="10" y="17" width="1" height="1"/>
      <rect class="cls-1" x="10" y="9" width="1" height="1"/>
      <rect class="cls-1" x="10" y="19" width="1" height="1"/>
      <rect class="cls-1" x="9" y="10" width="1" height="1"/>
      <rect class="cls-1" x="10" y="18" width="1" height="1"/>
      <rect class="cls-1" x="9" y="1" width="1" height="1"/>
      <rect class="cls-1" x="10" y="15" width="1" height="1"/>
      <rect class="cls-1" x="11" y="7" width="1" height="1"/>
      <rect class="cls-1" x="11" y="16" width="1" height="1"/>
      <rect class="cls-1" x="10" y="16" width="1" height="1"/>
      <rect class="cls-1" x="9" y="2" width="1" height="1"/>
      <rect class="cls-1" x="10" y="14" width="1" height="1"/>
      <rect class="cls-1" x="11" y="8" width="1" height="1"/>
      <rect class="cls-1" x="9" y="17" width="1" height="1"/>
      <rect class="cls-1" x="7" y="8" width="1" height="1"/>
      <rect class="cls-1" x="6" y="3" width="1" height="1"/>
      <rect class="cls-1" x="5" y="15" width="1" height="1"/>
      <rect class="cls-1" x="6" y="7" width="1" height="1"/>
      <rect class="cls-1" x="8" y="10" width="1" height="1"/>
      <rect class="cls-1" x="8" y="13" width="1" height="1"/>
      <rect class="cls-1" x="8" y="16" width="1" height="1"/>
      <rect class="cls-1" x="7" y="16" width="1" height="1"/>
      <rect class="cls-1" x="7" y="4" width="1" height="1"/>
      <rect class="cls-1" x="8" y="11" width="1" height="1"/>
      <rect class="cls-1" x="7" y="7" width="1" height="1"/>
      <rect class="cls-1" x="5" y="14" width="1" height="1"/>
      <rect class="cls-1" x="6" y="4" width="1" height="1"/>
      <rect class="cls-1" x="6" y="2" width="1" height="1"/>
      <rect class="cls-1" x="8" y="3" width="1" height="1"/>
      <rect class="cls-1" x="6" y="6" width="1" height="1"/>
      <rect class="cls-1" x="6" y="16" width="1" height="1"/>
      <rect class="cls-1" x="7" y="9" width="1" height="1"/>
      <rect class="cls-1" x="8" y="12" width="1" height="1"/>
      <rect class="cls-1" x="7" y="10" width="1" height="1"/>
      <rect class="cls-1" x="6" y="5" width="1" height="1"/>
      <rect class="cls-1" x="3" y="11" width="1" height="1"/>
      <rect class="cls-1" x="4" y="15" width="1" height="1"/>
      <rect class="cls-1" x="3" y="12" width="1" height="1"/>
      <rect class="cls-1" x="3" y="10" width="1" height="1"/>
      <rect class="cls-1" x="2" y="14" width="1" height="1"/>
      <rect class="cls-1" x="5" y="12" width="1" height="1"/>
      <rect class="cls-1" x="5" y="11" width="1" height="1"/>
      <rect class="cls-1" x="5" y="10" width="1" height="1"/>
      <rect class="cls-1" x="3" y="9" width="1" height="1"/>
      <rect class="cls-1" x="3" y="2" width="1" height="1"/>
      <rect class="cls-1" x="4" y="13" width="1" height="1"/>
      <rect class="cls-1" x="3" y="3" width="1" height="1"/>
      <rect class="cls-1" x="4" y="5" width="1" height="1"/>
      <rect class="cls-1" x="3" y="4" width="1" height="1"/>
      <rect class="cls-1" x="5" y="5" width="1" height="1"/>
      <rect class="cls-1" x="3" y="15" width="1" height="1"/>
      <rect class="cls-1" x="2" y="8" width="1" height="1"/>
      <rect class="cls-1" x="1" y="13" width="1" height="1"/>
      <rect class="cls-1" x="1" y="7" width="1" height="1"/>
    </g>
  </g>
</svg>