<?xml version="1.0" encoding="UTF-8"?>
<svg id="EInfärben" xmlns="http://www.w3.org/2000/svg" version="1.1" viewBox="0 0 20 20">
  <defs>
    <style>
      .cls-1 {
        fill: #d4edfc;
      }

      .cls-1, .cls-2, .cls-3, .cls-4, .cls-5, .cls-6, .cls-7, .cls-8, .cls-9 {
        stroke-width: 0px;
      }

      .cls-2 {
        fill: #bce4fa;
      }

      .cls-3 {
        fill: #57c4f1;
      }

      .cls-4 {
        fill: #a1daf8;
      }

      .cls-5 {
        fill: #00b5ec;
      }

      .cls-6 {
        fill: #80cff5;
      }

      .cls-7 {
        fill: #00a7e7;
      }

      .cls-8 {
        fill: #eaf6fe;
      }

      .cls-9 {
        fill: #009fe3;
      }
    </style>
  </defs>
  <g id="Einfärben-2" data-name="Einfärben">
    <g>
      <rect class="cls-8" y="8" width="1" height="1"/>
      <rect class="cls-8" x="4" y="8" width="1" height="1"/>
      <rect class="cls-8" x="2" y="8" width="1" height="1"/>
      <rect class="cls-8" x="3" y="8" width="1" height="1"/>
      <rect class="cls-8" x="1" y="8" width="1" height="1"/>
      <rect class="cls-8" x="19" y="8" width="1" height="1"/>
      <rect class="cls-8" x="17" y="8" width="1" height="1"/>
      <rect class="cls-8" x="18" y="8" width="1" height="1"/>
      <rect class="cls-8" x="10" y="8" width="1" height="1"/>
      <rect class="cls-8" x="8" y="8" width="1" height="1"/>
      <rect class="cls-8" x="7" y="8" width="1" height="1"/>
      <rect class="cls-8" x="9" y="8" width="1" height="1"/>
      <rect class="cls-8" x="5" y="8" width="1" height="1"/>
      <rect class="cls-8" x="6" y="8" width="1" height="1"/>
      <rect class="cls-8" x="13" y="8" width="1" height="1"/>
      <rect class="cls-8" x="11" y="8" width="1" height="1"/>
      <rect class="cls-8" x="12" y="8" width="1" height="1"/>
      <rect class="cls-8" x="16" y="8" width="1" height="1"/>
      <rect class="cls-8" x="15" y="8" width="1" height="1"/>
      <rect class="cls-8" x="14" y="8" width="1" height="1"/>
      <rect class="cls-1" y="7" width="1" height="1"/>
      <rect class="cls-1" x="4" y="7" width="1" height="1"/>
      <rect class="cls-1" x="3" y="7" width="1" height="1"/>
      <rect class="cls-1" x="2" y="7" width="1" height="1"/>
      <rect class="cls-1" x="1" y="7" width="1" height="1"/>
      <rect class="cls-1" x="19" y="7" width="1" height="1"/>
      <rect class="cls-1" x="17" y="7" width="1" height="1"/>
      <rect class="cls-1" x="18" y="7" width="1" height="1"/>
      <rect class="cls-1" x="10" y="7" width="1" height="1"/>
      <rect class="cls-1" x="7" y="7" width="1" height="1"/>
      <rect class="cls-1" x="8" y="7" width="1" height="1"/>
      <rect class="cls-1" x="9" y="7" width="1" height="1"/>
      <rect class="cls-1" x="5" y="7" width="1" height="1"/>
      <rect class="cls-1" x="6" y="7" width="1" height="1"/>
      <rect class="cls-1" x="13" y="7" width="1" height="1"/>
      <rect class="cls-1" x="12" y="7" width="1" height="1"/>
      <rect class="cls-1" x="11" y="7" width="1" height="1"/>
      <rect class="cls-1" x="16" y="7" width="1" height="1"/>
      <rect class="cls-1" x="15" y="7" width="1" height="1"/>
      <rect class="cls-1" x="14" y="7" width="1" height="1"/>
      <rect class="cls-2" y="6" width="1" height="1"/>
      <rect class="cls-2" x="4" y="6" width="1" height="1"/>
      <rect class="cls-2" x="2" y="6" width="1" height="1"/>
      <rect class="cls-2" x="3" y="6" width="1" height="1"/>
      <rect class="cls-2" x="1" y="6" width="1" height="1"/>
      <rect class="cls-2" x="19" y="6" width="1" height="1"/>
      <rect class="cls-2" x="17" y="6" width="1" height="1"/>
      <rect class="cls-2" x="18" y="6" width="1" height="1"/>
      <rect class="cls-2" x="10" y="6" width="1" height="1"/>
      <rect class="cls-2" x="8" y="6" width="1" height="1"/>
      <rect class="cls-2" x="9" y="6" width="1" height="1"/>
      <rect class="cls-2" x="6" y="6" width="1" height="1"/>
      <rect class="cls-2" x="7" y="6" width="1" height="1"/>
      <rect class="cls-2" x="5" y="6" width="1" height="1"/>
      <rect class="cls-2" x="13" y="6" width="1" height="1"/>
      <rect class="cls-2" x="11" y="6" width="1" height="1"/>
      <rect class="cls-2" x="12" y="6" width="1" height="1"/>
      <rect class="cls-2" x="16" y="6" width="1" height="1"/>
      <rect class="cls-2" x="15" y="6" width="1" height="1"/>
      <rect class="cls-2" x="14" y="6" width="1" height="1"/>
      <rect class="cls-4" y="5" width="1" height="1"/>
      <rect class="cls-4" x="4" y="5" width="1" height="1"/>
      <rect class="cls-4" x="2" y="5" width="1" height="1"/>
      <rect class="cls-4" x="3" y="5" width="1" height="1"/>
      <rect class="cls-4" x="1" y="5" width="1" height="1"/>
      <rect class="cls-4" x="19" y="5" width="1" height="1"/>
      <rect class="cls-4" x="17" y="5" width="1" height="1"/>
      <rect class="cls-4" x="18" y="5" width="1" height="1"/>
      <rect class="cls-4" x="10" y="5" width="1" height="1"/>
      <rect class="cls-4" x="8" y="5" width="1" height="1"/>
      <rect class="cls-4" x="9" y="5" width="1" height="1"/>
      <rect class="cls-4" x="6" y="5" width="1" height="1"/>
      <rect class="cls-4" x="7" y="5" width="1" height="1"/>
      <rect class="cls-4" x="5" y="5" width="1" height="1"/>
      <rect class="cls-4" x="13" y="5" width="1" height="1"/>
      <rect class="cls-4" x="11" y="5" width="1" height="1"/>
      <rect class="cls-4" x="12" y="5" width="1" height="1"/>
      <rect class="cls-4" x="15" y="5" width="1" height="1"/>
      <rect class="cls-4" x="16" y="5" width="1" height="1"/>
      <rect class="cls-4" x="14" y="5" width="1" height="1"/>
      <rect class="cls-6" y="4" width="1" height="1"/>
      <rect class="cls-6" x="4" y="4" width="1" height="1"/>
      <rect class="cls-6" x="3" y="4" width="1" height="1"/>
      <rect class="cls-6" x="2" y="4" width="1" height="1"/>
      <rect class="cls-6" x="1" y="4" width="1" height="1"/>
      <rect class="cls-6" x="19" y="4" width="1" height="1"/>
      <rect class="cls-6" x="17" y="4" width="1" height="1"/>
      <rect class="cls-6" x="18" y="4" width="1" height="1"/>
      <rect class="cls-6" x="10" y="4" width="1" height="1"/>
      <rect class="cls-6" x="8" y="4" width="1" height="1"/>
      <rect class="cls-6" x="9" y="4" width="1" height="1"/>
      <rect class="cls-6" x="6" y="4" width="1" height="1"/>
      <rect class="cls-6" x="7" y="4" width="1" height="1"/>
      <rect class="cls-6" x="5" y="4" width="1" height="1"/>
      <rect class="cls-6" x="13" y="4" width="1" height="1"/>
      <rect class="cls-6" x="12" y="4" width="1" height="1"/>
      <rect class="cls-6" x="11" y="4" width="1" height="1"/>
      <rect class="cls-6" x="15" y="4" width="1" height="1"/>
      <rect class="cls-6" x="16" y="4" width="1" height="1"/>
      <rect class="cls-6" x="14" y="4" width="1" height="1"/>
      <rect class="cls-3" y="3" width="1" height="1"/>
      <rect class="cls-3" x="4" y="3" width="1" height="1"/>
      <rect class="cls-3" x="3" y="3" width="1" height="1"/>
      <rect class="cls-3" x="2" y="3" width="1" height="1"/>
      <rect class="cls-3" x="1" y="3" width="1" height="1"/>
      <rect class="cls-3" x="19" y="3" width="1" height="1"/>
      <rect class="cls-3" x="17" y="3" width="1" height="1"/>
      <rect class="cls-3" x="18" y="3" width="1" height="1"/>
      <rect class="cls-3" x="10" y="3" width="1" height="1"/>
      <rect class="cls-3" x="9" y="3" width="1" height="1"/>
      <rect class="cls-3" x="8" y="3" width="1" height="1"/>
      <rect class="cls-3" x="6" y="3" width="1" height="1"/>
      <rect class="cls-3" x="7" y="3" width="1" height="1"/>
      <rect class="cls-3" x="5" y="3" width="1" height="1"/>
      <rect class="cls-3" x="13" y="3" width="1" height="1"/>
      <rect class="cls-3" x="12" y="3" width="1" height="1"/>
      <rect class="cls-3" x="11" y="3" width="1" height="1"/>
      <rect class="cls-3" x="16" y="3" width="1" height="1"/>
      <rect class="cls-3" x="15" y="3" width="1" height="1"/>
      <rect class="cls-3" x="14" y="3" width="1" height="1"/>
      <rect class="cls-5" y="2" width="1" height="1"/>
      <rect class="cls-5" x="4" y="2" width="1" height="1"/>
      <rect class="cls-5" x="2" y="2" width="1" height="1"/>
      <rect class="cls-5" x="3" y="2" width="1" height="1"/>
      <rect class="cls-5" x="1" y="2" width="1" height="1"/>
      <rect class="cls-5" x="17" y="2" width="1" height="1"/>
      <rect class="cls-5" x="19" y="2" width="1" height="1"/>
      <rect class="cls-5" x="18" y="2" width="1" height="1"/>
      <rect class="cls-5" x="10" y="2" width="1" height="1"/>
      <rect class="cls-5" x="9" y="2" width="1" height="1"/>
      <rect class="cls-5" x="8" y="2" width="1" height="1"/>
      <rect class="cls-5" x="5" y="2" width="1" height="1"/>
      <rect class="cls-5" x="7" y="2" width="1" height="1"/>
      <rect class="cls-5" x="6" y="2" width="1" height="1"/>
      <rect class="cls-5" x="13" y="2" width="1" height="1"/>
      <rect class="cls-5" x="12" y="2" width="1" height="1"/>
      <rect class="cls-5" x="11" y="2" width="1" height="1"/>
      <rect class="cls-5" x="16" y="2" width="1" height="1"/>
      <rect class="cls-5" x="15" y="2" width="1" height="1"/>
      <rect class="cls-5" x="14" y="2" width="1" height="1"/>
      <rect class="cls-7" y="1" width="1" height="1"/>
      <rect class="cls-7" x="4" y="1" width="1" height="1"/>
      <rect class="cls-7" x="3" y="1" width="1" height="1"/>
      <rect class="cls-7" x="2" y="1" width="1" height="1"/>
      <rect class="cls-7" x="1" y="1" width="1" height="1"/>
      <rect class="cls-7" x="18" y="1" width="1" height="1"/>
      <rect class="cls-7" x="17" y="1" width="1" height="1"/>
      <rect class="cls-7" x="19" y="1" width="1" height="1"/>
      <rect class="cls-7" x="10" y="1" width="1" height="1"/>
      <rect class="cls-7" x="9" y="1" width="1" height="1"/>
      <rect class="cls-7" x="8" y="1" width="1" height="1"/>
      <rect class="cls-7" x="7" y="1" width="1" height="1"/>
      <rect class="cls-7" x="5" y="1" width="1" height="1"/>
      <rect class="cls-7" x="6" y="1" width="1" height="1"/>
      <rect class="cls-7" x="13" y="1" width="1" height="1"/>
      <rect class="cls-7" x="12" y="1" width="1" height="1"/>
      <rect class="cls-7" x="11" y="1" width="1" height="1"/>
      <rect class="cls-7" x="16" y="1" width="1" height="1"/>
      <rect class="cls-7" x="15" y="1" width="1" height="1"/>
      <rect class="cls-7" x="14" y="1" width="1" height="1"/>
      <rect class="cls-9" width="1" height="1"/>
      <rect class="cls-9" x="4" width="1" height="1"/>
      <rect class="cls-9" x="5" width="1" height="1"/>
      <rect class="cls-9" x="3" width="1" height="1"/>
      <rect class="cls-9" x="2" width="1" height="1"/>
      <rect class="cls-9" x="1" width="1" height="1"/>
      <rect class="cls-9" x="18" width="1" height="1"/>
      <rect class="cls-9" x="17" width="1" height="1"/>
      <rect class="cls-9" x="19" width="1" height="1"/>
      <rect class="cls-9" x="10" width="1" height="1"/>
      <rect class="cls-9" x="9" width="1" height="1"/>
      <rect class="cls-9" x="8" width="1" height="1"/>
      <rect class="cls-9" x="6" width="1" height="1"/>
      <rect class="cls-9" x="7" width="1" height="1"/>
      <rect class="cls-9" x="13" width="1" height="1"/>
      <rect class="cls-9" x="12" width="1" height="1"/>
      <rect class="cls-9" x="11" width="1" height="1"/>
      <rect class="cls-9" x="16" width="1" height="1"/>
      <rect class="cls-9" x="15" width="1" height="1"/>
      <rect class="cls-9" x="14" width="1" height="1"/>
    </g>
  </g>
</svg>